<?xml version="1.0" encoding="UTF-8" standalone="no"?>
<!DOCTYPE svg PUBLIC "-//W3C//DTD SVG 1.1//EN"
 "http://www.w3.org/Graphics/SVG/1.1/DTD/svg11.dtd">
<!-- Generated by graphviz version 2.43.0 (0)
 -->
<!-- Title: G Pages: 1 -->
<svg width="1562pt" height="1018pt"
 viewBox="0.00 0.00 1561.87 1018.29" xmlns="http://www.w3.org/2000/svg" xmlns:xlink="http://www.w3.org/1999/xlink">
<g id="graph0" class="graph" transform="scale(1 1) rotate(0) translate(4 1014.29)">
<title>G</title><style>.edge>path:hover{stroke-width:8}</style>
<polygon fill="white" stroke="transparent" points="-4,4 -4,-1014.29 1557.87,-1014.29 1557.87,4 -4,4"/>
<!-- cv2 -->
<g id="node1" class="node">
<title>cv2</title><style>.edge>path:hover{stroke-width:8}</style>
<ellipse fill="#b34c4c" stroke="black" cx="529.91" cy="-830.87" rx="27" ry="18"/>
<text text-anchor="middle" x="529.91" y="-828.37" font-family="Helvetica,sans-Serif" font-size="10.00" fill="#ffffff">cv2</text>
</g>
<!-- src_core_video_analyzer -->
<g id="node27" class="node">
<title>src_core_video_analyzer</title><style>.edge>path:hover{stroke-width:8}</style>
<ellipse fill="#713091" stroke="black" cx="506.91" cy="-564.48" rx="64.19" ry="28.98"/>
<text text-anchor="middle" x="506.91" y="-572.98" font-family="Helvetica,sans-Serif" font-size="10.00" fill="#ffffff">src.</text>
<text text-anchor="middle" x="506.91" y="-561.98" font-family="Helvetica,sans-Serif" font-size="10.00" fill="#ffffff">core.</text>
<text text-anchor="middle" x="506.91" y="-550.98" font-family="Helvetica,sans-Serif" font-size="10.00" fill="#ffffff">video_analyzer</text>
</g>
<!-- cv2&#45;&gt;src_core_video_analyzer -->
<g id="edge1" class="edge">
<title>cv2&#45;&gt;src_core_video_analyzer</title><style>.edge>path:hover{stroke-width:8}</style>
<path fill="none" stroke="black" d="M522.37,-813.45C515.42,-796.74 506.28,-769.9 506.91,-745.67"/>
</g>
<!-- librosa -->
<g id="node2" class="node">
<title>librosa</title><style>.edge>path:hover{stroke-width:8}</style>
<ellipse fill="#b69553" stroke="black" cx="603.91" cy="-830.87" rx="29.37" ry="18"/>
<text text-anchor="middle" x="603.91" y="-828.37" font-family="Helvetica,sans-Serif" font-size="10.00" fill="#000000">librosa</text>
</g>
<!-- src_core_audio_analyzer -->
<g id="node21" class="node">
<title>src_core_audio_analyzer</title><style>.edge>path:hover{stroke-width:8}</style>
<ellipse fill="#652b82" stroke="black" cx="653.91" cy="-564.48" rx="64.19" ry="28.98"/>
<text text-anchor="middle" x="653.91" y="-572.98" font-family="Helvetica,sans-Serif" font-size="10.00" fill="#ffffff">src.</text>
<text text-anchor="middle" x="653.91" y="-561.98" font-family="Helvetica,sans-Serif" font-size="10.00" fill="#ffffff">core.</text>
<text text-anchor="middle" x="653.91" y="-550.98" font-family="Helvetica,sans-Serif" font-size="10.00" fill="#ffffff">audio_analyzer</text>
</g>
<!-- librosa&#45;&gt;src_core_audio_analyzer -->
<g id="edge2" class="edge">
<title>librosa&#45;&gt;src_core_audio_analyzer</title><style>.edge>path:hover{stroke-width:8}</style>
<path fill="none" stroke="black" d="M620.34,-815.67C636.3,-800.31 658.48,-774.16 660.91,-745.67"/>
</g>
<!-- numpy -->
<g id="node3" class="node">
<title>numpy</title><style>.edge>path:hover{stroke-width:8}</style>
<ellipse fill="#a2e619" stroke="black" cx="594.91" cy="-913.86" rx="29.37" ry="18"/>
<text text-anchor="middle" x="594.91" y="-911.36" font-family="Helvetica,sans-Serif" font-size="10.00" fill="#000000">numpy</text>
</g>
<!-- numpy&#45;&gt;cv2 -->
<g id="edge3" class="edge">
<title>numpy&#45;&gt;cv2</title><style>.edge>path:hover{stroke-width:8}</style>
<path fill="none" stroke="black" d="M582.38,-897.25C572.78,-885.29 559.4,-868.62 548.55,-855.1"/>
<polygon fill="#a2e619" stroke="black" points="551.17,-852.77 542.18,-847.16 545.71,-857.15 551.17,-852.77"/>
</g>
<!-- sklearn -->
<g id="node17" class="node">
<title>sklearn</title><style>.edge>path:hover{stroke-width:8}</style>
<ellipse fill="#3131c4" stroke="black" cx="719.91" cy="-830.87" rx="31.4" ry="18"/>
<text text-anchor="middle" x="719.91" y="-828.37" font-family="Helvetica,sans-Serif" font-size="10.00" fill="#ffffff">sklearn</text>
</g>
<!-- numpy&#45;&gt;sklearn -->
<g id="edge4" class="edge">
<title>numpy&#45;&gt;sklearn</title><style>.edge>path:hover{stroke-width:8}</style>
<path fill="none" stroke="black" d="M614.44,-900.21C635.02,-886.87 667.65,-865.73 691.16,-850.5"/>
<polygon fill="#a2e619" stroke="black" points="693.2,-853.35 699.69,-844.97 689.39,-847.47 693.2,-853.35"/>
</g>
<!-- numpy&#45;&gt;src_core_audio_analyzer -->
<g id="edge5" class="edge">
<title>numpy&#45;&gt;src_core_audio_analyzer</title><style>.edge>path:hover{stroke-width:8}</style>
<path fill="none" stroke="black" d="M611.46,-898.79C621.89,-888.97 634.71,-874.96 641.91,-859.86 664.07,-813.43 656.54,-796.93 660.91,-745.67"/>
</g>
<!-- numpy&#45;&gt;src_core_video_analyzer -->
<g id="edge6" class="edge">
<title>numpy&#45;&gt;src_core_video_analyzer</title><style>.edge>path:hover{stroke-width:8}</style>
<path fill="none" stroke="black" d="M567.57,-906.89C543.47,-900.02 509.79,-886.13 493.91,-859.86 467.48,-816.15 505.58,-796.73 506.91,-745.67"/>
<path fill="none" stroke="black" d="M506.91,-743.67C506.37,-706.25 500.2,-696.28 506.91,-659.46"/>
</g>
<!-- openpyxl -->
<g id="node4" class="node">
<title>openpyxl</title><style>.edge>path:hover{stroke-width:8}</style>
<ellipse fill="#0cf30c" stroke="black" cx="1151.91" cy="-564.48" rx="36.49" ry="18"/>
<text text-anchor="middle" x="1151.91" y="-561.98" font-family="Helvetica,sans-Serif" font-size="10.00" fill="#000000">openpyxl</text>
</g>
<!-- src_services_reporting_components -->
<g id="node29" class="node">
<title>src_services_reporting_components</title><style>.edge>path:hover{stroke-width:8}</style>
<ellipse fill="#713091" stroke="black" cx="1212.91" cy="-240.29" rx="54.39" ry="36.54"/>
<text text-anchor="middle" x="1212.91" y="-254.29" font-family="Helvetica,sans-Serif" font-size="10.00" fill="#ffffff">src.</text>
<text text-anchor="middle" x="1212.91" y="-243.29" font-family="Helvetica,sans-Serif" font-size="10.00" fill="#ffffff">services.</text>
<text text-anchor="middle" x="1212.91" y="-232.29" font-family="Helvetica,sans-Serif" font-size="10.00" fill="#ffffff">reporting.</text>
<text text-anchor="middle" x="1212.91" y="-221.29" font-family="Helvetica,sans-Serif" font-size="10.00" fill="#ffffff">components</text>
</g>
<!-- openpyxl&#45;&gt;src_services_reporting_components -->
<g id="edge7" class="edge">
<title>openpyxl&#45;&gt;src_services_reporting_components</title><style>.edge>path:hover{stroke-width:8}</style>
<path fill="none" stroke="black" d="M1174.62,-550.17C1210.85,-527.23 1279.24,-476.27 1294.91,-410.49"/>
<path fill="none" stroke="black" d="M1294.91,-408.49C1310.15,-379.74 1301.56,-367.13 1294.91,-335.27"/>
<path fill="none" stroke="black" d="M1294.91,-333.27C1290.1,-310.21 1274.25,-289.97 1257.75,-274.39"/>
<polygon fill="#0cf30c" stroke="black" points="1259.94,-271.65 1250.16,-267.56 1255.26,-276.85 1259.94,-271.65"/>
</g>
<!-- src_services_reporting_formatting -->
<g id="node30" class="node">
<title>src_services_reporting_formatting</title><style>.edge>path:hover{stroke-width:8}</style>
<ellipse fill="#713091" stroke="black" cx="1370.91" cy="-240.29" rx="48.17" ry="36.54"/>
<text text-anchor="middle" x="1370.91" y="-254.29" font-family="Helvetica,sans-Serif" font-size="10.00" fill="#ffffff">src.</text>
<text text-anchor="middle" x="1370.91" y="-243.29" font-family="Helvetica,sans-Serif" font-size="10.00" fill="#ffffff">services.</text>
<text text-anchor="middle" x="1370.91" y="-232.29" font-family="Helvetica,sans-Serif" font-size="10.00" fill="#ffffff">reporting.</text>
<text text-anchor="middle" x="1370.91" y="-221.29" font-family="Helvetica,sans-Serif" font-size="10.00" fill="#ffffff">formatting</text>
</g>
<!-- openpyxl&#45;&gt;src_services_reporting_formatting -->
<g id="edge8" class="edge">
<title>openpyxl&#45;&gt;src_services_reporting_formatting</title><style>.edge>path:hover{stroke-width:8}</style>
<path fill="none" stroke="black" d="M1294.91,-408.49C1316.88,-367.05 1360.04,-380.9 1370.91,-335.27"/>
<path fill="none" stroke="black" d="M1370.91,-333.27C1374.43,-318.51 1375.33,-302.02 1375.08,-287.13"/>
<polygon fill="#0cf30c" stroke="black" points="1378.58,-287 1374.74,-277.12 1371.58,-287.24 1378.58,-287"/>
</g>
<!-- src_services_reporting_generator -->
<g id="node31" class="node">
<title>src_services_reporting_generator</title><style>.edge>path:hover{stroke-width:8}</style>
<ellipse fill="#773399" stroke="black" cx="1253.91" cy="-130.75" rx="45.01" ry="36.54"/>
<text text-anchor="middle" x="1253.91" y="-144.75" font-family="Helvetica,sans-Serif" font-size="10.00" fill="#ffffff">src.</text>
<text text-anchor="middle" x="1253.91" y="-133.75" font-family="Helvetica,sans-Serif" font-size="10.00" fill="#ffffff">services.</text>
<text text-anchor="middle" x="1253.91" y="-122.75" font-family="Helvetica,sans-Serif" font-size="10.00" fill="#ffffff">reporting.</text>
<text text-anchor="middle" x="1253.91" y="-111.75" font-family="Helvetica,sans-Serif" font-size="10.00" fill="#ffffff">generator</text>
</g>
<!-- openpyxl&#45;&gt;src_services_reporting_generator -->
<g id="edge9" class="edge">
<title>openpyxl&#45;&gt;src_services_reporting_generator</title><style>.edge>path:hover{stroke-width:8}</style>
<path fill="none" stroke="black" d="M1294.91,-333.27C1283.01,-276.22 1288.71,-260.38 1275.91,-203.52 1273.91,-194.65 1271.37,-185.29 1268.73,-176.36"/>
<polygon fill="#0cf30c" stroke="black" points="1271.99,-175.06 1265.73,-166.51 1265.3,-177.1 1271.99,-175.06"/>
</g>
<!-- openpyxl_chart -->
<g id="node5" class="node">
<title>openpyxl_chart</title><style>.edge>path:hover{stroke-width:8}</style>
<ellipse fill="#53b653" stroke="black" cx="825.91" cy="-564.48" rx="52.28" ry="18"/>
<text text-anchor="middle" x="825.91" y="-561.98" font-family="Helvetica,sans-Serif" font-size="10.00" fill="#000000">openpyxl.chart</text>
</g>
<!-- openpyxl_chart&#45;&gt;src_services_reporting_components -->
<g id="edge10" class="edge">
<title>openpyxl_chart&#45;&gt;src_services_reporting_components</title><style>.edge>path:hover{stroke-width:8}</style>
<path fill="none" stroke="black" d="M854.19,-549.16C886.68,-531.88 936.26,-502.65 941.91,-482.49"/>
</g>
<!-- openpyxl_drawing -->
<g id="node6" class="node">
<title>openpyxl_drawing</title><style>.edge>path:hover{stroke-width:8}</style>
<ellipse fill="#53b653" stroke="black" cx="941.91" cy="-564.48" rx="45.92" ry="21.43"/>
<text text-anchor="middle" x="941.91" y="-567.48" font-family="Helvetica,sans-Serif" font-size="10.00" fill="#000000">openpyxl.</text>
<text text-anchor="middle" x="941.91" y="-556.48" font-family="Helvetica,sans-Serif" font-size="10.00" fill="#000000">drawing</text>
</g>
<!-- openpyxl_drawing&#45;&gt;src_services_reporting_components -->
<g id="edge11" class="edge">
<title>openpyxl_drawing&#45;&gt;src_services_reporting_components</title><style>.edge>path:hover{stroke-width:8}</style>
<path fill="none" stroke="black" d="M938.91,-543.1C937.17,-526.46 936.29,-502.53 941.91,-482.49"/>
</g>
<!-- openpyxl_drawing_image -->
<g id="node7" class="node">
<title>openpyxl_drawing_image</title><style>.edge>path:hover{stroke-width:8}</style>
<ellipse fill="#53b653" stroke="black" cx="1051.91" cy="-564.48" rx="45.92" ry="28.98"/>
<text text-anchor="middle" x="1051.91" y="-572.98" font-family="Helvetica,sans-Serif" font-size="10.00" fill="#000000">openpyxl.</text>
<text text-anchor="middle" x="1051.91" y="-561.98" font-family="Helvetica,sans-Serif" font-size="10.00" fill="#000000">drawing.</text>
<text text-anchor="middle" x="1051.91" y="-550.98" font-family="Helvetica,sans-Serif" font-size="10.00" fill="#000000">image</text>
</g>
<!-- openpyxl_drawing_image&#45;&gt;src_services_reporting_components -->
<g id="edge12" class="edge">
<title>openpyxl_drawing_image&#45;&gt;src_services_reporting_components</title><style>.edge>path:hover{stroke-width:8}</style>
<path fill="none" stroke="black" d="M1019.4,-543.81C986.01,-523.02 939.26,-491.94 941.91,-482.49"/>
</g>
<!-- openpyxl_formatting -->
<g id="node8" class="node">
<title>openpyxl_formatting</title><style>.edge>path:hover{stroke-width:8}</style>
<ellipse fill="#40c040" stroke="black" cx="1410.91" cy="-744.67" rx="48.17" ry="21.43"/>
<text text-anchor="middle" x="1410.91" y="-747.67" font-family="Helvetica,sans-Serif" font-size="10.00" fill="#000000">openpyxl.</text>
<text text-anchor="middle" x="1410.91" y="-736.67" font-family="Helvetica,sans-Serif" font-size="10.00" fill="#000000">formatting</text>
</g>
<!-- openpyxl_worksheet_worksheet -->
<g id="node13" class="node">
<title>openpyxl_worksheet_worksheet</title><style>.edge>path:hover{stroke-width:8}</style>
<ellipse fill="#3ab03a" stroke="black" cx="1370.91" cy="-564.48" rx="50.41" ry="28.98"/>
<text text-anchor="middle" x="1370.91" y="-572.98" font-family="Helvetica,sans-Serif" font-size="10.00" fill="#ffffff">openpyxl.</text>
<text text-anchor="middle" x="1370.91" y="-561.98" font-family="Helvetica,sans-Serif" font-size="10.00" fill="#ffffff">worksheet.</text>
<text text-anchor="middle" x="1370.91" y="-550.98" font-family="Helvetica,sans-Serif" font-size="10.00" fill="#ffffff">worksheet</text>
</g>
<!-- openpyxl_formatting&#45;&gt;openpyxl_worksheet_worksheet -->
<g id="edge13" class="edge">
<title>openpyxl_formatting&#45;&gt;openpyxl_worksheet_worksheet</title><style>.edge>path:hover{stroke-width:8}</style>
<path fill="none" stroke="black" d="M1410.97,-723.25C1411.01,-706.19 1411.03,-681.24 1410.91,-659.46"/>
<path fill="none" stroke="black" d="M1410.91,-657.46C1410.8,-637.48 1402.76,-616.93 1393.91,-600.34"/>
<polygon fill="#40c040" stroke="black" points="1396.92,-598.54 1388.95,-591.55 1390.82,-601.98 1396.92,-598.54"/>
</g>
<!-- openpyxl_formatting&#45;&gt;src_services_reporting_formatting -->
<g id="edge14" class="edge">
<title>openpyxl_formatting&#45;&gt;src_services_reporting_formatting</title><style>.edge>path:hover{stroke-width:8}</style>
<path fill="none" stroke="black" d="M1410.91,-657.46C1410.67,-613.23 1454.42,-609.37 1448.91,-565.48"/>
<path fill="none" stroke="black" d="M1448.91,-563.48C1439.41,-487.75 1370.91,-486.81 1370.91,-410.49"/>
</g>
<!-- openpyxl_formatting_rule -->
<g id="node9" class="node">
<title>openpyxl_formatting_rule</title><style>.edge>path:hover{stroke-width:8}</style>
<ellipse fill="#3ab03a" stroke="black" cx="1410.91" cy="-830.87" rx="50.41" ry="28.98"/>
<text text-anchor="middle" x="1410.91" y="-839.37" font-family="Helvetica,sans-Serif" font-size="10.00" fill="#ffffff">openpyxl.</text>
<text text-anchor="middle" x="1410.91" y="-828.37" font-family="Helvetica,sans-Serif" font-size="10.00" fill="#ffffff">formatting.</text>
<text text-anchor="middle" x="1410.91" y="-817.37" font-family="Helvetica,sans-Serif" font-size="10.00" fill="#ffffff">rule</text>
</g>
<!-- openpyxl_formatting_rule&#45;&gt;openpyxl_formatting -->
<g id="edge15" class="edge">
<title>openpyxl_formatting_rule&#45;&gt;openpyxl_formatting</title><style>.edge>path:hover{stroke-width:8}</style>
<path fill="none" stroke="black" d="M1410.91,-801.83C1410.91,-793.62 1410.91,-784.61 1410.91,-776.25"/>
<polygon fill="#3ab03a" stroke="black" points="1414.41,-776.13 1410.91,-766.13 1407.41,-776.13 1414.41,-776.13"/>
</g>
<!-- openpyxl_formatting_rule&#45;&gt;src_services_reporting_formatting -->
<g id="edge16" class="edge">
<title>openpyxl_formatting_rule&#45;&gt;src_services_reporting_formatting</title><style>.edge>path:hover{stroke-width:8}</style>
<path fill="none" stroke="black" d="M1445.89,-809.9C1466.69,-795.16 1489.04,-772.97 1488.91,-745.67"/>
<path fill="none" stroke="black" d="M1488.91,-743.67C1488.52,-662.5 1461.67,-645.63 1448.91,-565.48"/>
</g>
<!-- openpyxl_styles -->
<g id="node10" class="node">
<title>openpyxl_styles</title><style>.edge>path:hover{stroke-width:8}</style>
<ellipse fill="#47c247" stroke="black" cx="1507.91" cy="-989.08" rx="45.92" ry="21.43"/>
<text text-anchor="middle" x="1507.91" y="-992.08" font-family="Helvetica,sans-Serif" font-size="10.00" fill="#000000">openpyxl.</text>
<text text-anchor="middle" x="1507.91" y="-981.08" font-family="Helvetica,sans-Serif" font-size="10.00" fill="#000000">styles</text>
</g>
<!-- openpyxl_styles&#45;&gt;openpyxl_formatting_rule -->
<g id="edge17" class="edge">
<title>openpyxl_styles&#45;&gt;openpyxl_formatting_rule</title><style>.edge>path:hover{stroke-width:8}</style>
<path fill="none" stroke="black" d="M1503.7,-967.9C1500.35,-953.03 1495.19,-932.42 1488.91,-914.86"/>
<path fill="none" stroke="black" d="M1488.91,-912.86C1481.58,-892.36 1465.83,-874.34 1450.38,-860.54"/>
<polygon fill="#47c247" stroke="black" points="1452.26,-857.54 1442.38,-853.72 1447.72,-862.87 1452.26,-857.54"/>
</g>
<!-- openpyxl_styles&#45;&gt;src_services_reporting_formatting -->
<g id="edge18" class="edge">
<title>openpyxl_styles&#45;&gt;src_services_reporting_formatting</title><style>.edge>path:hover{stroke-width:8}</style>
<path fill="none" stroke="black" d="M1488.91,-912.86C1476.79,-878.97 1481.07,-867 1488.91,-831.87"/>
</g>
<!-- openpyxl_utils -->
<g id="node11" class="node">
<title>openpyxl_utils</title><style>.edge>path:hover{stroke-width:8}</style>
<ellipse fill="#2fdb2f" stroke="black" cx="1392.91" cy="-989.08" rx="50.75" ry="18"/>
<text text-anchor="middle" x="1392.91" y="-986.58" font-family="Helvetica,sans-Serif" font-size="10.00" fill="#000000">openpyxl.utils</text>
</g>
<!-- openpyxl_utils&#45;&gt;openpyxl_formatting_rule -->
<g id="edge19" class="edge">
<title>openpyxl_utils&#45;&gt;openpyxl_formatting_rule</title><style>.edge>path:hover{stroke-width:8}</style>
<path fill="none" stroke="black" d="M1410.91,-912.86C1412.54,-899.09 1412.91,-883.91 1412.75,-870.44"/>
<polygon fill="#2fdb2f" stroke="black" points="1416.24,-870 1412.53,-860.08 1409.25,-870.15 1416.24,-870"/>
</g>
<!-- openpyxl_utils&#45;&gt;openpyxl_worksheet_worksheet -->
<g id="edge20" class="edge">
<title>openpyxl_utils&#45;&gt;openpyxl_worksheet_worksheet</title><style>.edge>path:hover{stroke-width:8}</style>
<path fill="none" stroke="black" d="M1370.91,-657.46C1363.19,-640.92 1362.37,-620.82 1363.82,-603.63"/>
<polygon fill="#2fdb2f" stroke="black" points="1367.33,-603.69 1364.97,-593.36 1360.37,-602.91 1367.33,-603.69"/>
</g>
<!-- openpyxl_utils&#45;&gt;src_services_reporting_components -->
<g id="edge21" class="edge">
<title>openpyxl_utils&#45;&gt;src_services_reporting_components</title><style>.edge>path:hover{stroke-width:8}</style>
<path fill="none" stroke="black" d="M1398.34,-971.14C1402.75,-956.44 1408.59,-934.49 1410.91,-914.86"/>
<path fill="none" stroke="black" d="M1410.91,-912.86C1415.04,-877.86 1366.27,-892.05 1351.91,-859.86 1348.33,-851.83 1352.39,-734.04 1353.91,-723.45 1358.09,-694.32 1383.35,-686.13 1370.91,-659.46"/>
<path fill="none" stroke="black" d="M1370.91,-657.46C1302.35,-540.68 855.5,-694.13 764.91,-593.47 747.67,-574.32 749.52,-556.16 764.91,-535.49 813.95,-469.62 919.74,-561.56 941.91,-482.49"/>
<path fill="none" stroke="black" d="M941.91,-480.49C970.31,-373.69 1087.87,-300.64 1158.49,-265.44"/>
<polygon fill="#2fdb2f" stroke="black" points="1160.26,-268.47 1167.7,-260.93 1157.18,-262.18 1160.26,-268.47"/>
</g>
<!-- openpyxl_utils&#45;&gt;src_services_reporting_formatting -->
<g id="edge22" class="edge">
<title>openpyxl_utils&#45;&gt;src_services_reporting_formatting</title><style>.edge>path:hover{stroke-width:8}</style>
<path fill="none" stroke="black" d="M1410.91,-912.86C1416.77,-863.23 1478.02,-880.64 1488.91,-831.87"/>
<path fill="none" stroke="black" d="M1488.91,-829.87C1497.06,-793.35 1484.41,-782.82 1488.91,-745.67"/>
</g>
<!-- openpyxl_worksheet -->
<g id="node12" class="node">
<title>openpyxl_worksheet</title><style>.edge>path:hover{stroke-width:8}</style>
<ellipse fill="#47c247" stroke="black" cx="1254.91" cy="-564.48" rx="48.17" ry="21.43"/>
<text text-anchor="middle" x="1254.91" y="-567.48" font-family="Helvetica,sans-Serif" font-size="10.00" fill="#000000">openpyxl.</text>
<text text-anchor="middle" x="1254.91" y="-556.48" font-family="Helvetica,sans-Serif" font-size="10.00" fill="#000000">worksheet</text>
</g>
<!-- openpyxl_worksheet&#45;&gt;src_services_reporting_components -->
<g id="edge23" class="edge">
<title>openpyxl_worksheet&#45;&gt;src_services_reporting_components</title><style>.edge>path:hover{stroke-width:8}</style>
<path fill="none" stroke="black" d="M1277.72,-545.58C1295.34,-530.56 1319,-507.59 1332.91,-482.49"/>
<path fill="none" stroke="black" d="M1332.91,-480.49C1347.99,-453.28 1336.91,-441.34 1332.91,-410.49"/>
<path fill="none" stroke="black" d="M1332.91,-408.49C1327.28,-365.12 1333.15,-349.46 1308.91,-313.06 1297.42,-295.81 1280.33,-281.11 1263.74,-269.6"/>
<polygon fill="#47c247" stroke="black" points="1265.41,-266.5 1255.14,-263.87 1261.53,-272.33 1265.41,-266.5"/>
</g>
<!-- openpyxl_worksheet&#45;&gt;src_services_reporting_formatting -->
<g id="edge24" class="edge">
<title>openpyxl_worksheet&#45;&gt;src_services_reporting_formatting</title><style>.edge>path:hover{stroke-width:8}</style>
<path fill="none" stroke="black" d="M1332.91,-480.49C1350.07,-449.53 1370.91,-445.89 1370.91,-410.49"/>
<path fill="none" stroke="black" d="M1370.91,-408.49C1370.91,-375.95 1363.37,-366.93 1370.91,-335.27"/>
</g>
<!-- openpyxl_worksheet_worksheet&#45;&gt;src_services_reporting_components -->
<g id="edge25" class="edge">
<title>openpyxl_worksheet_worksheet&#45;&gt;src_services_reporting_components</title><style>.edge>path:hover{stroke-width:8}</style>
<path fill="none" stroke="black" d="M1372.69,-535.25C1373.22,-519.64 1373.17,-499.92 1370.91,-482.49"/>
<path fill="none" stroke="black" d="M1370.91,-480.49C1366.36,-445.38 1340.89,-444.98 1332.91,-410.49"/>
</g>
<!-- openpyxl_worksheet_worksheet&#45;&gt;src_services_reporting_formatting -->
<g id="edge26" class="edge">
<title>openpyxl_worksheet_worksheet&#45;&gt;src_services_reporting_formatting</title><style>.edge>path:hover{stroke-width:8}</style>
<path fill="none" stroke="black" d="M1370.91,-480.49C1366.91,-449.63 1370.91,-441.6 1370.91,-410.49"/>
</g>
<!-- pydantic -->
<g id="node14" class="node">
<title>pydantic</title><style>.edge>path:hover{stroke-width:8}</style>
<ellipse fill="#0cf3a6" stroke="black" cx="211.91" cy="-913.86" rx="34.96" ry="18"/>
<text text-anchor="middle" x="211.91" y="-911.36" font-family="Helvetica,sans-Serif" font-size="10.00" fill="#000000">pydantic</text>
</g>
<!-- src_core_app -->
<g id="node20" class="node">
<title>src_core_app</title><style>.edge>path:hover{stroke-width:8}</style>
<ellipse fill="#713091" stroke="black" cx="341.91" cy="-481.49" rx="44.98" ry="18"/>
<text text-anchor="middle" x="341.91" y="-478.99" font-family="Helvetica,sans-Serif" font-size="10.00" fill="#ffffff">src.core.app</text>
</g>
<!-- pydantic&#45;&gt;src_core_app -->
<g id="edge27" class="edge">
<title>pydantic&#45;&gt;src_core_app</title><style>.edge>path:hover{stroke-width:8}</style>
<path fill="none" stroke="black" d="M242.65,-905.05C287.19,-893.02 371.49,-867.56 436.91,-831.87"/>
<path fill="none" stroke="black" d="M436.91,-829.87C469.82,-811.92 440.82,-783.14 441.91,-745.67"/>
<path fill="none" stroke="black" d="M441.91,-743.67C442.85,-711.4 410.4,-716.3 395.91,-687.45 364.66,-625.24 376.42,-602.6 357.91,-535.49 355.55,-526.92 352.81,-517.64 350.27,-509.26"/>
<polygon fill="#0cf3a6" stroke="black" points="353.59,-508.15 347.31,-499.61 346.89,-510.2 353.59,-508.15"/>
</g>
<!-- pydantic&#45;&gt;src_core_audio_analyzer -->
<g id="edge28" class="edge">
<title>pydantic&#45;&gt;src_core_audio_analyzer</title><style>.edge>path:hover{stroke-width:8}</style>
<path fill="none" stroke="black" d="M436.91,-829.87C461.69,-816.36 467.81,-812.62 493.91,-801.88 566.33,-772.06 653.3,-823.61 660.91,-745.67"/>
<path fill="none" stroke="black" d="M660.91,-743.67C665.61,-695.57 661.97,-639.88 658.42,-603.74"/>
<polygon fill="#0cf3a6" stroke="black" points="661.89,-603.22 657.38,-593.63 654.92,-603.94 661.89,-603.22"/>
</g>
<!-- src_core_models -->
<g id="node24" class="node">
<title>src_core_models</title><style>.edge>path:hover{stroke-width:8}</style>
<ellipse fill="#a806f9" stroke="black" cx="441.91" cy="-658.46" rx="37.45" ry="28.98"/>
<text text-anchor="middle" x="441.91" y="-666.96" font-family="Helvetica,sans-Serif" font-size="10.00" fill="#ffffff">src.</text>
<text text-anchor="middle" x="441.91" y="-655.96" font-family="Helvetica,sans-Serif" font-size="10.00" fill="#ffffff">core.</text>
<text text-anchor="middle" x="441.91" y="-644.96" font-family="Helvetica,sans-Serif" font-size="10.00" fill="#ffffff">models</text>
</g>
<!-- pydantic&#45;&gt;src_core_models -->
<g id="edge29" class="edge">
<title>pydantic&#45;&gt;src_core_models</title><style>.edge>path:hover{stroke-width:8}</style>
<path fill="none" stroke="black" d="M441.91,-743.67C442.35,-728.61 442.43,-712.04 442.38,-697.61"/>
<polygon fill="#0cf3a6" stroke="black" points="445.88,-697.51 442.32,-687.54 438.88,-697.56 445.88,-697.51"/>
</g>
<!-- pydantic&#45;&gt;src_core_video_analyzer -->
<g id="edge30" class="edge">
<title>pydantic&#45;&gt;src_core_video_analyzer</title><style>.edge>path:hover{stroke-width:8}</style>
<path fill="none" stroke="black" d="M441.91,-743.67C443.28,-696.41 498.43,-705.97 506.91,-659.46"/>
<path fill="none" stroke="black" d="M506.91,-657.46C510.08,-640.06 510.51,-620.5 509.97,-603.91"/>
<polygon fill="#0cf3a6" stroke="black" points="513.45,-603.32 509.5,-593.49 506.46,-603.63 513.45,-603.32"/>
</g>
<!-- src_shorts_maker -->
<g id="node32" class="node">
<title>src_shorts_maker</title><style>.edge>path:hover{stroke-width:8}</style>
<ellipse fill="#623479" stroke="black" cx="294.91" cy="-334.27" rx="58.88" ry="21.43"/>
<text text-anchor="middle" x="294.91" y="-337.27" font-family="Helvetica,sans-Serif" font-size="10.00" fill="#ffffff">src.</text>
<text text-anchor="middle" x="294.91" y="-326.27" font-family="Helvetica,sans-Serif" font-size="10.00" fill="#ffffff">shorts_maker</text>
</g>
<!-- pydantic&#45;&gt;src_shorts_maker -->
<g id="edge31" class="edge">
<title>pydantic&#45;&gt;src_shorts_maker</title><style>.edge>path:hover{stroke-width:8}</style>
<path fill="none" stroke="black" d="M183.9,-902.84C136.74,-884.26 42.93,-839.5 4.91,-765.88 -3.74,-749.13 1.31,-741.96 4.91,-723.45 29.54,-596.84 26.9,-535.49 133.91,-463.49 196.41,-421.43 294.13,-485.82 294.91,-410.49"/>
<path fill="none" stroke="black" d="M294.91,-408.49C294.44,-394.59 294.38,-379.21 294.45,-366.14"/>
<polygon fill="#0cf3a6" stroke="black" points="297.95,-365.82 294.54,-355.79 290.95,-365.76 297.95,-365.82"/>
</g>
<!-- rich -->
<g id="node15" class="node">
<title>rich</title><style>.edge>path:hover{stroke-width:8}</style>
<ellipse fill="#3399cc" stroke="black" cx="40.91" cy="-744.67" rx="27" ry="18"/>
<text text-anchor="middle" x="40.91" y="-742.17" font-family="Helvetica,sans-Serif" font-size="10.00" fill="#000000">rich</text>
</g>
<!-- src_ui_console -->
<g id="node34" class="node">
<title>src_ui_console</title><style>.edge>path:hover{stroke-width:8}</style>
<ellipse fill="#8f3db8" stroke="black" cx="191.91" cy="-481.49" rx="48.72" ry="18"/>
<text text-anchor="middle" x="191.91" y="-478.99" font-family="Helvetica,sans-Serif" font-size="10.00" fill="#ffffff">src.ui.console</text>
</g>
<!-- rich&#45;&gt;src_ui_console -->
<g id="edge32" class="edge">
<title>rich&#45;&gt;src_ui_console</title><style>.edge>path:hover{stroke-width:8}</style>
<path fill="none" stroke="black" d="M58.53,-731.03C83.41,-712.49 125.75,-678.13 124.91,-659.46"/>
<path fill="none" stroke="black" d="M124.91,-657.46C123.47,-625.49 99.46,-624.57 91.91,-593.47 85.83,-568.43 78.62,-557.57 91.91,-535.49 103.27,-516.61 123.87,-504.1 143.43,-496"/>
<polygon fill="#3399cc" stroke="black" points="144.82,-499.22 152.91,-492.37 142.32,-492.68 144.82,-499.22"/>
</g>
<!-- rich_progress -->
<g id="node16" class="node">
<title>rich_progress</title><style>.edge>path:hover{stroke-width:8}</style>
<ellipse fill="#4c91b3" stroke="black" cx="132.91" cy="-744.67" rx="47.19" ry="18"/>
<text text-anchor="middle" x="132.91" y="-742.17" font-family="Helvetica,sans-Serif" font-size="10.00" fill="#000000">rich.progress</text>
</g>
<!-- rich_progress&#45;&gt;src_ui_console -->
<g id="edge33" class="edge">
<title>rich_progress&#45;&gt;src_ui_console</title><style>.edge>path:hover{stroke-width:8}</style>
<path fill="none" stroke="black" d="M130.79,-726.61C128.79,-709.62 125.96,-682.79 124.91,-659.46"/>
</g>
<!-- sklearn&#45;&gt;src_core_audio_analyzer -->
<g id="edge34" class="edge">
<title>sklearn&#45;&gt;src_core_audio_analyzer</title><style>.edge>path:hover{stroke-width:8}</style>
<path fill="none" stroke="black" d="M701.23,-816.08C683.03,-800.87 658.44,-774.66 660.91,-745.67"/>
</g>
<!-- sklearn_cluster -->
<g id="node18" class="node">
<title>sklearn_cluster</title><style>.edge>path:hover{stroke-width:8}</style>
<ellipse fill="#3d3db8" stroke="black" cx="808.91" cy="-830.87" rx="39.7" ry="21.43"/>
<text text-anchor="middle" x="808.91" y="-833.87" font-family="Helvetica,sans-Serif" font-size="10.00" fill="#ffffff">sklearn.</text>
<text text-anchor="middle" x="808.91" y="-822.87" font-family="Helvetica,sans-Serif" font-size="10.00" fill="#ffffff">cluster</text>
</g>
<!-- sklearn_cluster&#45;&gt;src_core_audio_analyzer -->
<g id="edge35" class="edge">
<title>sklearn_cluster&#45;&gt;src_core_audio_analyzer</title><style>.edge>path:hover{stroke-width:8}</style>
<path fill="none" stroke="black" d="M782.72,-814.9C775.35,-810.68 767.32,-806.1 759.91,-801.88 715.94,-776.84 656.61,-796.08 660.91,-745.67"/>
</g>
<!-- src_core -->
<g id="node19" class="node">
<title>src_core</title><style>.edge>path:hover{stroke-width:8}</style>
<ellipse fill="#ac10f9" stroke="black" cx="354.91" cy="-409.49" rx="32.25" ry="18"/>
<text text-anchor="middle" x="354.91" y="-406.99" font-family="Helvetica,sans-Serif" font-size="10.00" fill="#ffffff">src.core</text>
</g>
<!-- src_core&#45;&gt;src_services_reporting_generator -->
<g id="edge36" class="edge">
<title>src_core&#45;&gt;src_services_reporting_generator</title><style>.edge>path:hover{stroke-width:8}</style>
<path fill="none" stroke="black" d="M373.62,-394.72C389.39,-381.57 410.14,-360.13 414.91,-335.27"/>
<path fill="none" stroke="black" d="M414.91,-333.27C445.28,-175.16 1016.16,-140.49 1198.46,-133.44"/>
<polygon fill="#ac10f9" stroke="black" points="1198.77,-136.93 1208.63,-133.06 1198.5,-129.93 1198.77,-136.93"/>
</g>
<!-- src_core&#45;&gt;src_shorts_maker -->
<g id="edge37" class="edge">
<title>src_core&#45;&gt;src_shorts_maker</title><style>.edge>path:hover{stroke-width:8}</style>
<path fill="none" stroke="black" d="M341.89,-392.6C334.71,-383.84 325.6,-372.72 317.31,-362.61"/>
<polygon fill="#ac10f9" stroke="black" points="319.94,-360.3 310.9,-354.78 314.53,-364.73 319.94,-360.3"/>
</g>
<!-- src_core_app&#45;&gt;src_shorts_maker -->
<g id="edge38" class="edge">
<title>src_core_app&#45;&gt;src_shorts_maker</title><style>.edge>path:hover{stroke-width:8}</style>
<path fill="none" stroke="black" d="M323.28,-464.92C309.9,-451.89 294.31,-432 294.91,-410.49"/>
</g>
<!-- src_core_audio_analyzer&#45;&gt;src_shorts_maker -->
<g id="edge39" class="edge">
<title>src_core_audio_analyzer&#45;&gt;src_shorts_maker</title><style>.edge>path:hover{stroke-width:8}</style>
<path fill="none" stroke="black" d="M610.97,-542.62C566.14,-521.27 493.5,-487.86 428.91,-463.49 368.99,-440.88 292.84,-474.5 294.91,-410.49"/>
</g>
<!-- src_core_audio_mixer -->
<g id="node22" class="node">
<title>src_core_audio_mixer</title><style>.edge>path:hover{stroke-width:8}</style>
<ellipse fill="#7d35a1" stroke="black" cx="154.91" cy="-564.48" rx="54.39" ry="28.98"/>
<text text-anchor="middle" x="154.91" y="-572.98" font-family="Helvetica,sans-Serif" font-size="10.00" fill="#ffffff">src.</text>
<text text-anchor="middle" x="154.91" y="-561.98" font-family="Helvetica,sans-Serif" font-size="10.00" fill="#ffffff">core.</text>
<text text-anchor="middle" x="154.91" y="-550.98" font-family="Helvetica,sans-Serif" font-size="10.00" fill="#ffffff">audio_mixer</text>
</g>
<!-- src_core_audio_mixer&#45;&gt;src_shorts_maker -->
<g id="edge40" class="edge">
<title>src_core_audio_mixer&#45;&gt;src_shorts_maker</title><style>.edge>path:hover{stroke-width:8}</style>
<path fill="none" stroke="black" d="M193.49,-543.64C212.26,-532.56 234.12,-517.38 249.91,-499.49 279.24,-466.25 293.68,-454.79 294.91,-410.49"/>
</g>
<!-- src_core_interfaces -->
<g id="node23" class="node">
<title>src_core_interfaces</title><style>.edge>path:hover{stroke-width:8}</style>
<ellipse fill="#a12fdb" stroke="black" cx="236.91" cy="-658.46" rx="45.92" ry="28.98"/>
<text text-anchor="middle" x="236.91" y="-666.96" font-family="Helvetica,sans-Serif" font-size="10.00" fill="#ffffff">src.</text>
<text text-anchor="middle" x="236.91" y="-655.96" font-family="Helvetica,sans-Serif" font-size="10.00" fill="#ffffff">core.</text>
<text text-anchor="middle" x="236.91" y="-644.96" font-family="Helvetica,sans-Serif" font-size="10.00" fill="#ffffff">interfaces</text>
</g>
<!-- src_core_interfaces&#45;&gt;src_core_app -->
<g id="edge41" class="edge">
<title>src_core_interfaces&#45;&gt;src_core_app</title><style>.edge>path:hover{stroke-width:8}</style>
<path fill="none" stroke="black" d="M234.88,-629.42C234.36,-603.04 237.29,-563.51 255.91,-535.49 266.72,-519.22 284.4,-507.07 300.93,-498.54"/>
<polygon fill="#a12fdb" stroke="black" points="302.47,-501.69 309.94,-494.17 299.42,-495.39 302.47,-501.69"/>
</g>
<!-- src_core_interfaces&#45;&gt;src_core_audio_mixer -->
<g id="edge42" class="edge">
<title>src_core_interfaces&#45;&gt;src_core_audio_mixer</title><style>.edge>path:hover{stroke-width:8}</style>
<path fill="none" stroke="black" d="M214.94,-632.81C205.61,-622.35 194.59,-609.99 184.56,-598.74"/>
<polygon fill="#a12fdb" stroke="black" points="187.07,-596.3 177.8,-591.16 181.85,-600.95 187.07,-596.3"/>
</g>
<!-- src_core_montage -->
<g id="node25" class="node">
<title>src_core_montage</title><style>.edge>path:hover{stroke-width:8}</style>
<ellipse fill="#7d35a1" stroke="black" cx="306.91" cy="-564.48" rx="42.35" ry="28.98"/>
<text text-anchor="middle" x="306.91" y="-572.98" font-family="Helvetica,sans-Serif" font-size="10.00" fill="#ffffff">src.</text>
<text text-anchor="middle" x="306.91" y="-561.98" font-family="Helvetica,sans-Serif" font-size="10.00" fill="#ffffff">core.</text>
<text text-anchor="middle" x="306.91" y="-550.98" font-family="Helvetica,sans-Serif" font-size="10.00" fill="#ffffff">montage</text>
</g>
<!-- src_core_interfaces&#45;&gt;src_core_montage -->
<g id="edge43" class="edge">
<title>src_core_interfaces&#45;&gt;src_core_montage</title><style>.edge>path:hover{stroke-width:8}</style>
<path fill="none" stroke="black" d="M256.41,-631.84C264.21,-621.59 273.3,-609.64 281.6,-598.74"/>
<polygon fill="#a12fdb" stroke="black" points="284.49,-600.72 287.76,-590.65 278.92,-596.48 284.49,-600.72"/>
</g>
<!-- src_core_models&#45;&gt;src_core_app -->
<g id="edge44" class="edge">
<title>src_core_models&#45;&gt;src_core_app</title><style>.edge>path:hover{stroke-width:8}</style>
<path fill="none" stroke="black" d="M434.75,-629.81C429.75,-611.39 422.61,-586.76 414.91,-565.48"/>
<path fill="none" stroke="black" d="M414.91,-563.48C406.39,-539.92 387.17,-519.07 370.59,-504.43"/>
<polygon fill="#a806f9" stroke="black" points="372.61,-501.56 362.72,-497.76 368.08,-506.9 372.61,-501.56"/>
</g>
<!-- src_core_models&#45;&gt;src_core_audio_analyzer -->
<g id="edge45" class="edge">
<title>src_core_models&#45;&gt;src_core_audio_analyzer</title><style>.edge>path:hover{stroke-width:8}</style>
<path fill="none" stroke="black" d="M474.11,-643.49C507.24,-629.11 559.48,-606.45 599.13,-589.25"/>
<polygon fill="#a806f9" stroke="black" points="600.63,-592.41 608.41,-585.22 597.84,-585.99 600.63,-592.41"/>
</g>
<!-- src_core_models&#45;&gt;src_core_audio_mixer -->
<g id="edge46" class="edge">
<title>src_core_models&#45;&gt;src_core_audio_mixer</title><style>.edge>path:hover{stroke-width:8}</style>
<path fill="none" stroke="black" d="M407.58,-646.46C358.91,-630.86 269.31,-602.14 210.94,-583.43"/>
<polygon fill="#a806f9" stroke="black" points="211.72,-580.01 201.13,-580.29 209.59,-586.68 211.72,-580.01"/>
</g>
<!-- src_core_models&#45;&gt;src_core_montage -->
<g id="edge47" class="edge">
<title>src_core_models&#45;&gt;src_core_montage</title><style>.edge>path:hover{stroke-width:8}</style>
<path fill="none" stroke="black" d="M414.27,-638.63C394.24,-624.98 366.93,-606.38 344.87,-591.34"/>
<polygon fill="#a806f9" stroke="black" points="346.62,-588.3 336.39,-585.56 342.68,-594.09 346.62,-588.3"/>
</g>
<!-- src_core_models&#45;&gt;src_core_video_analyzer -->
<g id="edge48" class="edge">
<title>src_core_models&#45;&gt;src_core_video_analyzer</title><style>.edge>path:hover{stroke-width:8}</style>
<path fill="none" stroke="black" d="M459.67,-632.33C466.55,-622.59 474.55,-611.27 481.99,-600.74"/>
<polygon fill="#a806f9" stroke="black" points="484.89,-602.7 487.8,-592.52 479.17,-598.66 484.89,-602.7"/>
</g>
<!-- src_core_models&#45;&gt;src_services_reporting_generator -->
<g id="edge49" class="edge">
<title>src_core_models&#45;&gt;src_services_reporting_generator</title><style>.edge>path:hover{stroke-width:8}</style>
<path fill="none" stroke="black" d="M414.91,-480.49C403.92,-450.15 395.56,-361.1 414.91,-335.27"/>
</g>
<!-- src_core_models&#45;&gt;src_shorts_maker -->
<g id="edge50" class="edge">
<title>src_core_models&#45;&gt;src_shorts_maker</title><style>.edge>path:hover{stroke-width:8}</style>
<path fill="none" stroke="black" d="M414.91,-563.48C402.67,-529.63 427.16,-516.33 414.91,-482.49"/>
<path fill="none" stroke="black" d="M414.91,-480.49C393.89,-422.43 294.27,-472.23 294.91,-410.49"/>
</g>
<!-- src_core_montage&#45;&gt;src_core_app -->
<g id="edge51" class="edge">
<title>src_core_montage&#45;&gt;src_core_app</title><style>.edge>path:hover{stroke-width:8}</style>
<path fill="none" stroke="black" d="M318.56,-536.51C322.38,-527.68 326.61,-517.89 330.41,-509.09"/>
<polygon fill="#7d35a1" stroke="black" points="333.73,-510.25 334.48,-499.68 327.3,-507.47 333.73,-510.25"/>
</g>
<!-- src_core_validation -->
<g id="node26" class="node">
<title>src_core_validation</title><style>.edge>path:hover{stroke-width:8}</style>
<ellipse fill="#9d3bce" stroke="black" cx="583.91" cy="-658.46" rx="45.92" ry="28.98"/>
<text text-anchor="middle" x="583.91" y="-666.96" font-family="Helvetica,sans-Serif" font-size="10.00" fill="#ffffff">src.</text>
<text text-anchor="middle" x="583.91" y="-655.96" font-family="Helvetica,sans-Serif" font-size="10.00" fill="#ffffff">core.</text>
<text text-anchor="middle" x="583.91" y="-644.96" font-family="Helvetica,sans-Serif" font-size="10.00" fill="#ffffff">validation</text>
</g>
<!-- src_core_validation&#45;&gt;src_core_audio_analyzer -->
<g id="edge52" class="edge">
<title>src_core_validation&#45;&gt;src_core_audio_analyzer</title><style>.edge>path:hover{stroke-width:8}</style>
<path fill="none" stroke="black" d="M603.41,-631.84C610.81,-622.11 619.38,-610.85 627.33,-600.41"/>
<polygon fill="#9d3bce" stroke="black" points="630.27,-602.32 633.54,-592.25 624.7,-598.08 630.27,-602.32"/>
</g>
<!-- src_core_validation&#45;&gt;src_core_video_analyzer -->
<g id="edge53" class="edge">
<title>src_core_validation&#45;&gt;src_core_video_analyzer</title><style>.edge>path:hover{stroke-width:8}</style>
<path fill="none" stroke="black" d="M562.87,-632.33C554.41,-622.23 544.53,-610.42 535.45,-599.57"/>
<polygon fill="#9d3bce" stroke="black" points="538.1,-597.29 529,-591.87 532.74,-601.78 538.1,-597.29"/>
</g>
<!-- src_core_video_analyzer&#45;&gt;src_core_app -->
<g id="edge54" class="edge">
<title>src_core_video_analyzer&#45;&gt;src_core_app</title><style>.edge>path:hover{stroke-width:8}</style>
<path fill="none" stroke="black" d="M464.42,-542.62C437.83,-529.57 403.93,-512.93 378.54,-500.47"/>
<polygon fill="#713091" stroke="black" points="379.77,-497.17 369.25,-495.91 376.69,-503.46 379.77,-497.17"/>
</g>
<!-- src_services_reporting -->
<g id="node28" class="node">
<title>src_services_reporting</title><style>.edge>path:hover{stroke-width:8}</style>
<ellipse fill="#914cb3" stroke="black" cx="1253.91" cy="-28.99" rx="43.27" ry="28.98"/>
<text text-anchor="middle" x="1253.91" y="-37.49" font-family="Helvetica,sans-Serif" font-size="10.00" fill="#ffffff">src.</text>
<text text-anchor="middle" x="1253.91" y="-26.49" font-family="Helvetica,sans-Serif" font-size="10.00" fill="#ffffff">services.</text>
<text text-anchor="middle" x="1253.91" y="-15.49" font-family="Helvetica,sans-Serif" font-size="10.00" fill="#ffffff">reporting</text>
</g>
<!-- src_services_reporting_components&#45;&gt;src_services_reporting_generator -->
<g id="edge55" class="edge">
<title>src_services_reporting_components&#45;&gt;src_services_reporting_generator</title><style>.edge>path:hover{stroke-width:8}</style>
<path fill="none" stroke="black" d="M1226.22,-204.38C1229.73,-195.18 1233.56,-185.13 1237.22,-175.53"/>
<polygon fill="#713091" stroke="black" points="1240.51,-176.72 1240.81,-166.12 1233.97,-174.22 1240.51,-176.72"/>
</g>
<!-- src_services_reporting_formatting&#45;&gt;src_services_reporting_generator -->
<g id="edge56" class="edge">
<title>src_services_reporting_formatting&#45;&gt;src_services_reporting_generator</title><style>.edge>path:hover{stroke-width:8}</style>
<path fill="none" stroke="black" d="M1340.78,-211.6C1325.65,-197.69 1307.18,-180.72 1291.17,-166"/>
<polygon fill="#713091" stroke="black" points="1293.26,-163.17 1283.53,-158.98 1288.53,-168.32 1293.26,-163.17"/>
</g>
<!-- src_services_reporting_generator&#45;&gt;src_services_reporting -->
<g id="edge57" class="edge">
<title>src_services_reporting_generator&#45;&gt;src_services_reporting</title><style>.edge>path:hover{stroke-width:8}</style>
<path fill="none" stroke="black" d="M1253.91,-93.74C1253.91,-85.5 1253.91,-76.71 1253.91,-68.37"/>
<polygon fill="#773399" stroke="black" points="1257.41,-68.13 1253.91,-58.13 1250.41,-68.13 1257.41,-68.13"/>
</g>
<!-- src_ui -->
<g id="node33" class="node">
<title>src_ui</title><style>.edge>path:hover{stroke-width:8}</style>
<ellipse fill="#9947c2" stroke="black" cx="239.91" cy="-409.49" rx="27" ry="18"/>
<text text-anchor="middle" x="239.91" y="-406.99" font-family="Helvetica,sans-Serif" font-size="10.00" fill="#ffffff">src.ui</text>
</g>
<!-- src_ui&#45;&gt;src_shorts_maker -->
<g id="edge58" class="edge">
<title>src_ui&#45;&gt;src_shorts_maker</title><style>.edge>path:hover{stroke-width:8}</style>
<path fill="none" stroke="black" d="M251.57,-392.96C258.08,-384.3 266.37,-373.26 273.96,-363.16"/>
<polygon fill="#9947c2" stroke="black" points="276.91,-365.06 280.12,-354.97 271.31,-360.86 276.91,-365.06"/>
</g>
<!-- src_ui_console&#45;&gt;src_shorts_maker -->
<g id="edge59" class="edge">
<title>src_ui_console&#45;&gt;src_shorts_maker</title><style>.edge>path:hover{stroke-width:8}</style>
<path fill="none" stroke="black" d="M231.26,-470.6C259.97,-460.75 294.03,-442.37 294.91,-410.49"/>
</g>
<!-- yaml -->
<g id="node35" class="node">
<title>yaml</title><style>.edge>path:hover{stroke-width:8}</style>
<ellipse fill="#c24799" stroke="black" cx="310.91" cy="-830.87" rx="27" ry="18"/>
<text text-anchor="middle" x="310.91" y="-828.37" font-family="Helvetica,sans-Serif" font-size="10.00" fill="#ffffff">yaml</text>
</g>
<!-- yaml&#45;&gt;src_core_audio_mixer -->
<g id="edge60" class="edge">
<title>yaml&#45;&gt;src_core_audio_mixer</title><style>.edge>path:hover{stroke-width:8}</style>
<path fill="none" stroke="black" d="M314.48,-812.74C317.32,-795.22 319.54,-767.56 310.91,-745.67"/>
<path fill="none" stroke="black" d="M310.91,-743.67C287.97,-685.49 221.66,-735.73 181.91,-687.45 162.7,-664.13 156.41,-630.07 154.65,-603.87"/>
<polygon fill="#c24799" stroke="black" points="158.13,-603.36 154.17,-593.53 151.14,-603.69 158.13,-603.36"/>
</g>
<!-- yaml&#45;&gt;src_core_montage -->
<g id="edge61" class="edge">
<title>yaml&#45;&gt;src_core_montage</title><style>.edge>path:hover{stroke-width:8}</style>
<path fill="none" stroke="black" d="M310.91,-743.67C293.94,-697.84 296.38,-640.75 300.75,-603.73"/>
<polygon fill="#c24799" stroke="black" points="304.27,-603.75 302.08,-593.38 297.33,-602.85 304.27,-603.75"/>
</g>
</g>
</svg>
