<?xml version="1.0" encoding="UTF-8" standalone="no"?>
<!DOCTYPE svg PUBLIC "-//W3C//DTD SVG 1.1//EN"
 "http://www.w3.org/Graphics/SVG/1.1/DTD/svg11.dtd">
<!-- Generated by graphviz version 2.43.0 (0)
 -->
<!-- Title: G Pages: 1 -->
<svg width="1503pt" height="1018pt"
 viewBox="0.00 0.00 1502.96 1018.29" xmlns="http://www.w3.org/2000/svg" xmlns:xlink="http://www.w3.org/1999/xlink">
<g id="graph0" class="graph" transform="scale(1 1) rotate(0) translate(4 1014.29)">
<title>G</title><style>.edge>path:hover{stroke-width:8}</style>
<polygon fill="white" stroke="transparent" points="-4,4 -4,-1014.29 1498.96,-1014.29 1498.96,4 -4,4"/>
<!-- cv2 -->
<g id="node1" class="node">
<title>cv2</title><style>.edge>path:hover{stroke-width:8}</style>
<ellipse fill="#b34c4c" stroke="black" cx="380" cy="-830.87" rx="27" ry="18"/>
<text text-anchor="middle" x="380" y="-828.37" font-family="Helvetica,sans-Serif" font-size="10.00" fill="#ffffff">cv2</text>
</g>
<!-- src_core_video_analyzer -->
<g id="node25" class="node">
<title>src_core_video_analyzer</title><style>.edge>path:hover{stroke-width:8}</style>
<ellipse fill="#613091" stroke="black" cx="332" cy="-564.48" rx="64.19" ry="28.98"/>
<text text-anchor="middle" x="332" y="-572.98" font-family="Helvetica,sans-Serif" font-size="10.00" fill="#ffffff">src.</text>
<text text-anchor="middle" x="332" y="-561.98" font-family="Helvetica,sans-Serif" font-size="10.00" fill="#ffffff">core.</text>
<text text-anchor="middle" x="332" y="-550.98" font-family="Helvetica,sans-Serif" font-size="10.00" fill="#ffffff">video_analyzer</text>
</g>
<!-- cv2&#45;&gt;src_core_video_analyzer -->
<g id="edge1" class="edge">
<title>cv2&#45;&gt;src_core_video_analyzer</title><style>.edge>path:hover{stroke-width:8}</style>
<path fill="none" stroke="black" d="M396.48,-816.42C413.24,-801.1 436.53,-774.44 435,-745.67"/>
<path fill="none" stroke="black" d="M435,-743.67C432.81,-702.67 413.4,-697.1 397,-659.46"/>
</g>
<!-- librosa -->
<g id="node2" class="node">
<title>librosa</title><style>.edge>path:hover{stroke-width:8}</style>
<ellipse fill="#b69d53" stroke="black" cx="44" cy="-830.87" rx="29.37" ry="18"/>
<text text-anchor="middle" x="44" y="-828.37" font-family="Helvetica,sans-Serif" font-size="10.00" fill="#000000">librosa</text>
</g>
<!-- src_core_audio_analyzer -->
<g id="node19" class="node">
<title>src_core_audio_analyzer</title><style>.edge>path:hover{stroke-width:8}</style>
<ellipse fill="#613091" stroke="black" cx="81" cy="-564.48" rx="64.19" ry="28.98"/>
<text text-anchor="middle" x="81" y="-572.98" font-family="Helvetica,sans-Serif" font-size="10.00" fill="#ffffff">src.</text>
<text text-anchor="middle" x="81" y="-561.98" font-family="Helvetica,sans-Serif" font-size="10.00" fill="#ffffff">core.</text>
<text text-anchor="middle" x="81" y="-550.98" font-family="Helvetica,sans-Serif" font-size="10.00" fill="#ffffff">audio_analyzer</text>
</g>
<!-- librosa&#45;&gt;src_core_audio_analyzer -->
<g id="edge2" class="edge">
<title>librosa&#45;&gt;src_core_audio_analyzer</title><style>.edge>path:hover{stroke-width:8}</style>
<path fill="none" stroke="black" d="M60.58,-815.99C76.93,-800.69 99.68,-774.41 101,-745.67"/>
<path fill="none" stroke="black" d="M101,-743.67C103.21,-695.13 95.29,-639.53 88.77,-603.53"/>
<polygon fill="#b69d53" stroke="black" points="92.17,-602.66 86.89,-593.47 85.29,-603.94 92.17,-602.66"/>
</g>
<!-- numpy -->
<g id="node3" class="node">
<title>numpy</title><style>.edge>path:hover{stroke-width:8}</style>
<ellipse fill="#80d926" stroke="black" cx="380" cy="-913.86" rx="29.37" ry="18"/>
<text text-anchor="middle" x="380" y="-911.36" font-family="Helvetica,sans-Serif" font-size="10.00" fill="#000000">numpy</text>
</g>
<!-- numpy&#45;&gt;cv2 -->
<g id="edge3" class="edge">
<title>numpy&#45;&gt;cv2</title><style>.edge>path:hover{stroke-width:8}</style>
<path fill="none" stroke="black" d="M380,-895.69C380,-885.06 380,-871.17 380,-859.07"/>
<polygon fill="#80d926" stroke="black" points="383.5,-859.02 380,-849.02 376.5,-859.02 383.5,-859.02"/>
</g>
<!-- numpy&#45;&gt;src_core_audio_analyzer -->
<g id="edge4" class="edge">
<title>numpy&#45;&gt;src_core_audio_analyzer</title><style>.edge>path:hover{stroke-width:8}</style>
<path fill="none" stroke="black" d="M351.23,-909.52C276.86,-899.22 85.11,-861.33 101,-745.67"/>
</g>
<!-- numpy&#45;&gt;src_core_video_analyzer -->
<g id="edge5" class="edge">
<title>numpy&#45;&gt;src_core_video_analyzer</title><style>.edge>path:hover{stroke-width:8}</style>
<path fill="none" stroke="black" d="M392.96,-897.65C400.85,-887.57 410.46,-873.7 416,-859.86 435.12,-812.1 437.73,-797.04 435,-745.67"/>
</g>
<!-- openpyxl -->
<g id="node4" class="node">
<title>openpyxl</title><style>.edge>path:hover{stroke-width:8}</style>
<ellipse fill="#0cf346" stroke="black" cx="755" cy="-564.48" rx="36.49" ry="18"/>
<text text-anchor="middle" x="755" y="-561.98" font-family="Helvetica,sans-Serif" font-size="10.00" fill="#000000">openpyxl</text>
</g>
<!-- src_services_reporting_components -->
<g id="node27" class="node">
<title>src_services_reporting_components</title><style>.edge>path:hover{stroke-width:8}</style>
<ellipse fill="#613091" stroke="black" cx="594" cy="-240.29" rx="54.39" ry="36.54"/>
<text text-anchor="middle" x="594" y="-254.29" font-family="Helvetica,sans-Serif" font-size="10.00" fill="#ffffff">src.</text>
<text text-anchor="middle" x="594" y="-243.29" font-family="Helvetica,sans-Serif" font-size="10.00" fill="#ffffff">services.</text>
<text text-anchor="middle" x="594" y="-232.29" font-family="Helvetica,sans-Serif" font-size="10.00" fill="#ffffff">reporting.</text>
<text text-anchor="middle" x="594" y="-221.29" font-family="Helvetica,sans-Serif" font-size="10.00" fill="#ffffff">components</text>
</g>
<!-- openpyxl&#45;&gt;src_services_reporting_components -->
<g id="edge6" class="edge">
<title>openpyxl&#45;&gt;src_services_reporting_components</title><style>.edge>path:hover{stroke-width:8}</style>
<path fill="none" stroke="black" d="M594,-333.27C590.89,-318.41 590.1,-301.91 590.32,-287.02"/>
<polygon fill="#0cf346" stroke="black" points="593.82,-287.12 590.62,-277.02 586.82,-286.91 593.82,-287.12"/>
</g>
<!-- src_services_reporting_formatting -->
<g id="node28" class="node">
<title>src_services_reporting_formatting</title><style>.edge>path:hover{stroke-width:8}</style>
<ellipse fill="#613091" stroke="black" cx="715" cy="-240.29" rx="48.17" ry="36.54"/>
<text text-anchor="middle" x="715" y="-254.29" font-family="Helvetica,sans-Serif" font-size="10.00" fill="#ffffff">src.</text>
<text text-anchor="middle" x="715" y="-243.29" font-family="Helvetica,sans-Serif" font-size="10.00" fill="#ffffff">services.</text>
<text text-anchor="middle" x="715" y="-232.29" font-family="Helvetica,sans-Serif" font-size="10.00" fill="#ffffff">reporting.</text>
<text text-anchor="middle" x="715" y="-221.29" font-family="Helvetica,sans-Serif" font-size="10.00" fill="#ffffff">formatting</text>
</g>
<!-- openpyxl&#45;&gt;src_services_reporting_formatting -->
<g id="edge7" class="edge">
<title>openpyxl&#45;&gt;src_services_reporting_formatting</title><style>.edge>path:hover{stroke-width:8}</style>
<path fill="none" stroke="black" d="M784.37,-553.58C827.94,-538.59 905.43,-510.72 913,-499.49 959.3,-430.78 960.56,-380.9 913,-313.06 881.61,-268.3 819.33,-251.34 772.97,-244.98"/>
<polygon fill="#0cf346" stroke="black" points="773.39,-241.5 763.03,-243.74 772.53,-248.45 773.39,-241.5"/>
</g>
<!-- src_services_reporting_generator -->
<g id="node29" class="node">
<title>src_services_reporting_generator</title><style>.edge>path:hover{stroke-width:8}</style>
<ellipse fill="#663399" stroke="black" cx="594" cy="-130.75" rx="45.01" ry="36.54"/>
<text text-anchor="middle" x="594" y="-144.75" font-family="Helvetica,sans-Serif" font-size="10.00" fill="#ffffff">src.</text>
<text text-anchor="middle" x="594" y="-133.75" font-family="Helvetica,sans-Serif" font-size="10.00" fill="#ffffff">services.</text>
<text text-anchor="middle" x="594" y="-122.75" font-family="Helvetica,sans-Serif" font-size="10.00" fill="#ffffff">reporting.</text>
<text text-anchor="middle" x="594" y="-111.75" font-family="Helvetica,sans-Serif" font-size="10.00" fill="#ffffff">generator</text>
</g>
<!-- openpyxl&#45;&gt;src_services_reporting_generator -->
<g id="edge8" class="edge">
<title>openpyxl&#45;&gt;src_services_reporting_generator</title><style>.edge>path:hover{stroke-width:8}</style>
<path fill="none" stroke="black" d="M737.54,-548.62C700.06,-515.23 613.7,-429.73 594,-335.27"/>
<path fill="none" stroke="black" d="M594,-333.27C573.19,-282.61 475.53,-282.15 512,-241.29"/>
</g>
<!-- openpyxl_chart -->
<g id="node5" class="node">
<title>openpyxl_chart</title><style>.edge>path:hover{stroke-width:8}</style>
<ellipse fill="#53b66c" stroke="black" cx="899" cy="-564.48" rx="52.28" ry="18"/>
<text text-anchor="middle" x="899" y="-561.98" font-family="Helvetica,sans-Serif" font-size="10.00" fill="#000000">openpyxl.chart</text>
</g>
<!-- openpyxl_chart&#45;&gt;src_services_reporting_components -->
<g id="edge9" class="edge">
<title>openpyxl_chart&#45;&gt;src_services_reporting_components</title><style>.edge>path:hover{stroke-width:8}</style>
<path fill="none" stroke="black" d="M899.71,-546.39C900.22,-529.98 900.58,-504.51 899,-482.49"/>
</g>
<!-- openpyxl_drawing -->
<g id="node6" class="node">
<title>openpyxl_drawing</title><style>.edge>path:hover{stroke-width:8}</style>
<ellipse fill="#53b66c" stroke="black" cx="1015" cy="-564.48" rx="45.92" ry="21.43"/>
<text text-anchor="middle" x="1015" y="-567.48" font-family="Helvetica,sans-Serif" font-size="10.00" fill="#000000">openpyxl.</text>
<text text-anchor="middle" x="1015" y="-556.48" font-family="Helvetica,sans-Serif" font-size="10.00" fill="#000000">drawing</text>
</g>
<!-- openpyxl_drawing&#45;&gt;src_services_reporting_components -->
<g id="edge10" class="edge">
<title>openpyxl_drawing&#45;&gt;src_services_reporting_components</title><style>.edge>path:hover{stroke-width:8}</style>
<path fill="none" stroke="black" d="M987.44,-547.33C953.38,-526.92 899.76,-493.17 899,-482.49"/>
</g>
<!-- openpyxl_drawing_image -->
<g id="node7" class="node">
<title>openpyxl_drawing_image</title><style>.edge>path:hover{stroke-width:8}</style>
<ellipse fill="#53b66c" stroke="black" cx="1125" cy="-564.48" rx="45.92" ry="28.98"/>
<text text-anchor="middle" x="1125" y="-572.98" font-family="Helvetica,sans-Serif" font-size="10.00" fill="#000000">openpyxl.</text>
<text text-anchor="middle" x="1125" y="-561.98" font-family="Helvetica,sans-Serif" font-size="10.00" fill="#000000">drawing.</text>
<text text-anchor="middle" x="1125" y="-550.98" font-family="Helvetica,sans-Serif" font-size="10.00" fill="#000000">image</text>
</g>
<!-- openpyxl_drawing_image&#45;&gt;src_services_reporting_components -->
<g id="edge11" class="edge">
<title>openpyxl_drawing_image&#45;&gt;src_services_reporting_components</title><style>.edge>path:hover{stroke-width:8}</style>
<path fill="none" stroke="black" d="M1144.73,-538.03C1187.43,-482.27 1283.34,-352.91 1268,-335.27"/>
<path fill="none" stroke="black" d="M1268,-333.27C1177.5,-231.58 788.01,-317.39 658,-277.06 652.68,-275.41 647.31,-273.28 642.06,-270.88"/>
<polygon fill="#53b66c" stroke="black" points="643.3,-267.59 632.78,-266.32 640.21,-273.87 643.3,-267.59"/>
</g>
<!-- openpyxl_formatting -->
<g id="node8" class="node">
<title>openpyxl_formatting</title><style>.edge>path:hover{stroke-width:8}</style>
<ellipse fill="#40c060" stroke="black" cx="1353" cy="-744.67" rx="48.17" ry="21.43"/>
<text text-anchor="middle" x="1353" y="-747.67" font-family="Helvetica,sans-Serif" font-size="10.00" fill="#000000">openpyxl.</text>
<text text-anchor="middle" x="1353" y="-736.67" font-family="Helvetica,sans-Serif" font-size="10.00" fill="#000000">formatting</text>
</g>
<!-- openpyxl_worksheet_worksheet -->
<g id="node13" class="node">
<title>openpyxl_worksheet_worksheet</title><style>.edge>path:hover{stroke-width:8}</style>
<ellipse fill="#3ab058" stroke="black" cx="1239" cy="-564.48" rx="50.41" ry="28.98"/>
<text text-anchor="middle" x="1239" y="-572.98" font-family="Helvetica,sans-Serif" font-size="10.00" fill="#000000">openpyxl.</text>
<text text-anchor="middle" x="1239" y="-561.98" font-family="Helvetica,sans-Serif" font-size="10.00" fill="#000000">worksheet.</text>
<text text-anchor="middle" x="1239" y="-550.98" font-family="Helvetica,sans-Serif" font-size="10.00" fill="#000000">worksheet</text>
</g>
<!-- openpyxl_formatting&#45;&gt;openpyxl_worksheet_worksheet -->
<g id="edge12" class="edge">
<title>openpyxl_formatting&#45;&gt;openpyxl_worksheet_worksheet</title><style>.edge>path:hover{stroke-width:8}</style>
<path fill="none" stroke="black" d="M1368.87,-724.45C1380.64,-708.11 1394.42,-683.53 1393,-659.46"/>
<path fill="none" stroke="black" d="M1393,-657.46C1392.25,-644.88 1330.89,-611.44 1285.86,-588.55"/>
<polygon fill="#40c060" stroke="black" points="1287.32,-585.36 1276.81,-583.98 1284.16,-591.61 1287.32,-585.36"/>
</g>
<!-- openpyxl_formatting&#45;&gt;src_services_reporting_formatting -->
<g id="edge13" class="edge">
<title>openpyxl_formatting&#45;&gt;src_services_reporting_formatting</title><style>.edge>path:hover{stroke-width:8}</style>
<path fill="none" stroke="black" d="M1393,-657.46C1390.38,-613.31 1434.02,-609.61 1431,-565.48"/>
<path fill="none" stroke="black" d="M1431,-563.48C1423.1,-448.11 1381.07,-423.23 1306,-335.27"/>
</g>
<!-- openpyxl_formatting_rule -->
<g id="node9" class="node">
<title>openpyxl_formatting_rule</title><style>.edge>path:hover{stroke-width:8}</style>
<ellipse fill="#3ab058" stroke="black" cx="1353" cy="-830.87" rx="50.41" ry="28.98"/>
<text text-anchor="middle" x="1353" y="-839.37" font-family="Helvetica,sans-Serif" font-size="10.00" fill="#000000">openpyxl.</text>
<text text-anchor="middle" x="1353" y="-828.37" font-family="Helvetica,sans-Serif" font-size="10.00" fill="#000000">formatting.</text>
<text text-anchor="middle" x="1353" y="-817.37" font-family="Helvetica,sans-Serif" font-size="10.00" fill="#000000">rule</text>
</g>
<!-- openpyxl_formatting_rule&#45;&gt;openpyxl_formatting -->
<g id="edge14" class="edge">
<title>openpyxl_formatting_rule&#45;&gt;openpyxl_formatting</title><style>.edge>path:hover{stroke-width:8}</style>
<path fill="none" stroke="black" d="M1353,-801.83C1353,-793.62 1353,-784.61 1353,-776.25"/>
<polygon fill="#3ab058" stroke="black" points="1356.5,-776.13 1353,-766.13 1349.5,-776.13 1356.5,-776.13"/>
</g>
<!-- openpyxl_formatting_rule&#45;&gt;src_services_reporting_formatting -->
<g id="edge15" class="edge">
<title>openpyxl_formatting_rule&#45;&gt;src_services_reporting_formatting</title><style>.edge>path:hover{stroke-width:8}</style>
<path fill="none" stroke="black" d="M1385.42,-808.51C1404.26,-793.62 1425.37,-771.77 1431,-745.67"/>
<path fill="none" stroke="black" d="M1431,-743.67C1447.69,-666.25 1431.1,-644.67 1431,-565.48"/>
</g>
<!-- openpyxl_styles -->
<g id="node10" class="node">
<title>openpyxl_styles</title><style>.edge>path:hover{stroke-width:8}</style>
<ellipse fill="#47c266" stroke="black" cx="1449" cy="-989.08" rx="45.92" ry="21.43"/>
<text text-anchor="middle" x="1449" y="-992.08" font-family="Helvetica,sans-Serif" font-size="10.00" fill="#000000">openpyxl.</text>
<text text-anchor="middle" x="1449" y="-981.08" font-family="Helvetica,sans-Serif" font-size="10.00" fill="#000000">styles</text>
</g>
<!-- openpyxl_styles&#45;&gt;openpyxl_formatting_rule -->
<g id="edge16" class="edge">
<title>openpyxl_styles&#45;&gt;openpyxl_formatting_rule</title><style>.edge>path:hover{stroke-width:8}</style>
<path fill="none" stroke="black" d="M1445.12,-967.89C1442.01,-953.01 1437.14,-932.4 1431,-914.86"/>
<path fill="none" stroke="black" d="M1431,-912.86C1423.79,-892.31 1408.06,-874.29 1392.59,-860.5"/>
<polygon fill="#47c266" stroke="black" points="1394.46,-857.49 1384.57,-853.68 1389.92,-862.83 1394.46,-857.49"/>
</g>
<!-- openpyxl_styles&#45;&gt;src_services_reporting_formatting -->
<g id="edge17" class="edge">
<title>openpyxl_styles&#45;&gt;src_services_reporting_formatting</title><style>.edge>path:hover{stroke-width:8}</style>
<path fill="none" stroke="black" d="M1431,-912.86C1419.09,-878.89 1423.15,-867 1431,-831.87"/>
</g>
<!-- openpyxl_utils -->
<g id="node11" class="node">
<title>openpyxl_utils</title><style>.edge>path:hover{stroke-width:8}</style>
<ellipse fill="#2fdb5a" stroke="black" cx="1334" cy="-989.08" rx="50.75" ry="18"/>
<text text-anchor="middle" x="1334" y="-986.58" font-family="Helvetica,sans-Serif" font-size="10.00" fill="#000000">openpyxl.utils</text>
</g>
<!-- openpyxl_utils&#45;&gt;openpyxl_formatting_rule -->
<g id="edge18" class="edge">
<title>openpyxl_utils&#45;&gt;openpyxl_formatting_rule</title><style>.edge>path:hover{stroke-width:8}</style>
<path fill="none" stroke="black" d="M1353,-912.86C1354.46,-899.07 1354.79,-883.88 1354.65,-870.42"/>
<polygon fill="#2fdb5a" stroke="black" points="1358.15,-869.99 1354.45,-860.06 1351.15,-870.13 1358.15,-869.99"/>
</g>
<!-- openpyxl_utils&#45;&gt;openpyxl_worksheet_worksheet -->
<g id="edge19" class="edge">
<title>openpyxl_utils&#45;&gt;openpyxl_worksheet_worksheet</title><style>.edge>path:hover{stroke-width:8}</style>
<path fill="none" stroke="black" d="M1239,-657.46C1227.05,-642.63 1226.24,-621.65 1228.77,-603.48"/>
<polygon fill="#2fdb5a" stroke="black" points="1232.25,-603.9 1230.53,-593.45 1225.36,-602.69 1232.25,-603.9"/>
</g>
<!-- openpyxl_utils&#45;&gt;src_services_reporting_components -->
<g id="edge20" class="edge">
<title>openpyxl_utils&#45;&gt;src_services_reporting_components</title><style>.edge>path:hover{stroke-width:8}</style>
<path fill="none" stroke="black" d="M1339.91,-971.18C1344.67,-956.51 1350.9,-934.58 1353,-914.86"/>
<path fill="none" stroke="black" d="M1353,-912.86C1356.71,-877.81 1312.52,-889.85 1294,-859.86 1245.45,-781.29 1296.92,-731.4 1239,-659.46"/>
<path fill="none" stroke="black" d="M1239,-657.46C1116.98,-524.48 955.13,-730.77 838,-593.47 821.27,-573.86 827.31,-558.94 838,-535.49 852.89,-502.81 901.57,-518.31 899,-482.49"/>
<path fill="none" stroke="black" d="M899,-480.49C895.86,-448.27 725.17,-329.38 640.54,-272.29"/>
<polygon fill="#2fdb5a" stroke="black" points="642.39,-269.31 632.14,-266.63 638.48,-275.12 642.39,-269.31"/>
</g>
<!-- openpyxl_utils&#45;&gt;src_services_reporting_formatting -->
<g id="edge21" class="edge">
<title>openpyxl_utils&#45;&gt;src_services_reporting_formatting</title><style>.edge>path:hover{stroke-width:8}</style>
<path fill="none" stroke="black" d="M1353,-912.86C1358.27,-863.17 1420.11,-880.64 1431,-831.87"/>
<path fill="none" stroke="black" d="M1431,-829.87C1439.15,-793.35 1422.05,-782.01 1431,-745.67"/>
</g>
<!-- openpyxl_worksheet -->
<g id="node12" class="node">
<title>openpyxl_worksheet</title><style>.edge>path:hover{stroke-width:8}</style>
<ellipse fill="#47c266" stroke="black" cx="1355" cy="-564.48" rx="48.17" ry="21.43"/>
<text text-anchor="middle" x="1355" y="-567.48" font-family="Helvetica,sans-Serif" font-size="10.00" fill="#000000">openpyxl.</text>
<text text-anchor="middle" x="1355" y="-556.48" font-family="Helvetica,sans-Serif" font-size="10.00" fill="#000000">worksheet</text>
</g>
<!-- openpyxl_worksheet&#45;&gt;src_services_reporting_components -->
<g id="edge22" class="edge">
<title>openpyxl_worksheet&#45;&gt;src_services_reporting_components</title><style>.edge>path:hover{stroke-width:8}</style>
<path fill="none" stroke="black" d="M1345.83,-543.25C1333.42,-514.47 1312.12,-459.75 1306,-410.49"/>
<path fill="none" stroke="black" d="M1306,-408.49C1297.29,-372.87 1292.37,-362.66 1268,-335.27"/>
</g>
<!-- openpyxl_worksheet&#45;&gt;src_services_reporting_formatting -->
<g id="edge23" class="edge">
<title>openpyxl_worksheet&#45;&gt;src_services_reporting_formatting</title><style>.edge>path:hover{stroke-width:8}</style>
<path fill="none" stroke="black" d="M1306,-408.49C1301.98,-376.2 1327.12,-360.02 1306,-335.27"/>
</g>
<!-- openpyxl_worksheet_worksheet&#45;&gt;src_services_reporting_components -->
<g id="edge24" class="edge">
<title>openpyxl_worksheet_worksheet&#45;&gt;src_services_reporting_components</title><style>.edge>path:hover{stroke-width:8}</style>
<path fill="none" stroke="black" d="M1245.42,-535.45C1252.16,-504.9 1262.52,-454.48 1268,-410.49"/>
<path fill="none" stroke="black" d="M1268,-408.49C1274.66,-376.64 1289.63,-359.58 1268,-335.27"/>
</g>
<!-- openpyxl_worksheet_worksheet&#45;&gt;src_services_reporting_formatting -->
<g id="edge25" class="edge">
<title>openpyxl_worksheet_worksheet&#45;&gt;src_services_reporting_formatting</title><style>.edge>path:hover{stroke-width:8}</style>
<path fill="none" stroke="black" d="M1268,-408.49C1272.52,-372.11 1329.8,-363.16 1306,-335.27"/>
<path fill="none" stroke="black" d="M1306,-333.27C1296.94,-322.67 1294.77,-318.66 1282,-313.06 1191.5,-273.41 898.66,-252.02 773.07,-244.47"/>
<polygon fill="#3ab058" stroke="black" points="773.07,-240.97 762.88,-243.87 772.66,-247.95 773.07,-240.97"/>
</g>
<!-- pydantic -->
<g id="node14" class="node">
<title>pydantic</title><style>.edge>path:hover{stroke-width:8}</style>
<ellipse fill="#0cf3f3" stroke="black" cx="152" cy="-913.86" rx="34.96" ry="18"/>
<text text-anchor="middle" x="152" y="-911.36" font-family="Helvetica,sans-Serif" font-size="10.00" fill="#000000">pydantic</text>
</g>
<!-- src_core_app -->
<g id="node18" class="node">
<title>src_core_app</title><style>.edge>path:hover{stroke-width:8}</style>
<ellipse fill="#613091" stroke="black" cx="337" cy="-481.49" rx="44.98" ry="18"/>
<text text-anchor="middle" x="337" y="-478.99" font-family="Helvetica,sans-Serif" font-size="10.00" fill="#ffffff">src.core.app</text>
</g>
<!-- pydantic&#45;&gt;src_core_app -->
<g id="edge26" class="edge">
<title>pydantic&#45;&gt;src_core_app</title><style>.edge>path:hover{stroke-width:8}</style>
<path fill="none" stroke="black" d="M397,-743.67C433.69,-658.66 448.26,-617.35 405,-535.49 397.66,-521.62 384.94,-510.22 372.46,-501.6"/>
<polygon fill="#0cf3f3" stroke="black" points="374.23,-498.57 363.93,-496.07 370.42,-504.45 374.23,-498.57"/>
</g>
<!-- pydantic&#45;&gt;src_core_audio_analyzer -->
<g id="edge27" class="edge">
<title>pydantic&#45;&gt;src_core_audio_analyzer</title><style>.edge>path:hover{stroke-width:8}</style>
<path fill="none" stroke="black" d="M43,-657.46C44.16,-638.14 51.59,-618.12 59.56,-601.71"/>
<polygon fill="#0cf3f3" stroke="black" points="62.84,-602.99 64.28,-592.49 56.61,-599.8 62.84,-602.99"/>
</g>
<!-- src_core_models -->
<g id="node22" class="node">
<title>src_core_models</title><style>.edge>path:hover{stroke-width:8}</style>
<ellipse fill="#7f06f9" stroke="black" cx="332" cy="-658.46" rx="37.45" ry="28.98"/>
<text text-anchor="middle" x="332" y="-666.96" font-family="Helvetica,sans-Serif" font-size="10.00" fill="#ffffff">src.</text>
<text text-anchor="middle" x="332" y="-655.96" font-family="Helvetica,sans-Serif" font-size="10.00" fill="#ffffff">core.</text>
<text text-anchor="middle" x="332" y="-644.96" font-family="Helvetica,sans-Serif" font-size="10.00" fill="#ffffff">models</text>
</g>
<!-- pydantic&#45;&gt;src_core_models -->
<g id="edge28" class="edge">
<title>pydantic&#45;&gt;src_core_models</title><style>.edge>path:hover{stroke-width:8}</style>
<path fill="none" stroke="black" d="M174.21,-899.88C233.08,-865.19 389.21,-771.22 397,-745.67"/>
<path fill="none" stroke="black" d="M397,-743.67C406.77,-721.02 388.65,-699.07 369.07,-683.27"/>
<polygon fill="#0cf3f3" stroke="black" points="371.05,-680.37 360.97,-677.1 366.81,-685.94 371.05,-680.37"/>
</g>
<!-- pydantic&#45;&gt;src_core_video_analyzer -->
<g id="edge29" class="edge">
<title>pydantic&#45;&gt;src_core_video_analyzer</title><style>.edge>path:hover{stroke-width:8}</style>
<path fill="none" stroke="black" d="M397,-743.67C411.83,-709.31 411.95,-693.77 397,-659.46"/>
<path fill="none" stroke="black" d="M397,-657.46C388.08,-637.01 374.2,-616.51 361.55,-600.08"/>
<polygon fill="#0cf3f3" stroke="black" points="364.02,-597.56 355.08,-591.87 358.52,-601.89 364.02,-597.56"/>
</g>
<!-- src_shorts_maker -->
<g id="node30" class="node">
<title>src_shorts_maker</title><style>.edge>path:hover{stroke-width:8}</style>
<ellipse fill="#573479" stroke="black" cx="258" cy="-334.27" rx="58.88" ry="21.43"/>
<text text-anchor="middle" x="258" y="-337.27" font-family="Helvetica,sans-Serif" font-size="10.00" fill="#ffffff">src.</text>
<text text-anchor="middle" x="258" y="-326.27" font-family="Helvetica,sans-Serif" font-size="10.00" fill="#ffffff">shorts_maker</text>
</g>
<!-- pydantic&#45;&gt;src_shorts_maker -->
<g id="edge30" class="edge">
<title>pydantic&#45;&gt;src_shorts_maker</title><style>.edge>path:hover{stroke-width:8}</style>
<path fill="none" stroke="black" d="M117.54,-911.14C82.87,-907.36 31.07,-895.64 6,-859.86 -17.48,-826.36 39.22,-721.77 43,-659.46"/>
<path fill="none" stroke="black" d="M43,-657.46C45.31,-625.13 16.02,-624.88 8,-593.47 1.61,-568.5 -2.67,-558.95 8,-535.49 48.51,-446.35 151.56,-385.12 211.96,-355.57"/>
<polygon fill="#0cf3f3" stroke="black" points="213.77,-358.58 221.27,-351.1 210.74,-352.27 213.77,-358.58"/>
</g>
<!-- rich -->
<g id="node15" class="node">
<title>rich</title><style>.edge>path:hover{stroke-width:8}</style>
<ellipse fill="#3359cc" stroke="black" cx="156" cy="-744.67" rx="27" ry="18"/>
<text text-anchor="middle" x="156" y="-742.17" font-family="Helvetica,sans-Serif" font-size="10.00" fill="#ffffff">rich</text>
</g>
<!-- src_ui_console -->
<g id="node32" class="node">
<title>src_ui_console</title><style>.edge>path:hover{stroke-width:8}</style>
<ellipse fill="#7a3db8" stroke="black" cx="187" cy="-481.49" rx="48.72" ry="18"/>
<text text-anchor="middle" x="187" y="-478.99" font-family="Helvetica,sans-Serif" font-size="10.00" fill="#ffffff">src.ui.console</text>
</g>
<!-- rich&#45;&gt;src_ui_console -->
<g id="edge31" class="edge">
<title>rich&#45;&gt;src_ui_console</title><style>.edge>path:hover{stroke-width:8}</style>
<path fill="none" stroke="black" d="M148.43,-727.29C139.07,-704.65 125.8,-662.84 138,-629.47 150.77,-594.52 193.31,-602.67 192,-565.48"/>
<path fill="none" stroke="black" d="M192,-563.48C190.55,-545.57 189.3,-525.4 188.42,-509.66"/>
<polygon fill="#3359cc" stroke="black" points="191.91,-509.36 187.86,-499.57 184.92,-509.74 191.91,-509.36"/>
</g>
<!-- rich_progress -->
<g id="node16" class="node">
<title>rich_progress</title><style>.edge>path:hover{stroke-width:8}</style>
<ellipse fill="#4c66b3" stroke="black" cx="267" cy="-744.67" rx="47.19" ry="18"/>
<text text-anchor="middle" x="267" y="-742.17" font-family="Helvetica,sans-Serif" font-size="10.00" fill="#ffffff">rich.progress</text>
</g>
<!-- rich_progress&#45;&gt;src_ui_console -->
<g id="edge32" class="edge">
<title>rich_progress&#45;&gt;src_ui_console</title><style>.edge>path:hover{stroke-width:8}</style>
<path fill="none" stroke="black" d="M267.02,-726.55C266.43,-703.43 263.12,-661.45 248,-629.47 231.83,-595.31 195.03,-603.15 192,-565.48"/>
</g>
<!-- src_core -->
<g id="node17" class="node">
<title>src_core</title><style>.edge>path:hover{stroke-width:8}</style>
<ellipse fill="#8510f9" stroke="black" cx="491" cy="-409.49" rx="32.25" ry="18"/>
<text text-anchor="middle" x="491" y="-406.99" font-family="Helvetica,sans-Serif" font-size="10.00" fill="#ffffff">src.core</text>
</g>
<!-- src_core&#45;&gt;src_services_reporting_generator -->
<g id="edge33" class="edge">
<title>src_core&#45;&gt;src_services_reporting_generator</title><style>.edge>path:hover{stroke-width:8}</style>
<path fill="none" stroke="black" d="M487.64,-391.43C482.16,-358.28 475.29,-284.58 512,-241.29"/>
</g>
<!-- src_core&#45;&gt;src_shorts_maker -->
<g id="edge34" class="edge">
<title>src_core&#45;&gt;src_shorts_maker</title><style>.edge>path:hover{stroke-width:8}</style>
<path fill="none" stroke="black" d="M463.35,-399.8C425.88,-388.03 358.2,-366.76 310.81,-351.87"/>
<polygon fill="#8510f9" stroke="black" points="311.62,-348.45 301.03,-348.8 309.52,-355.13 311.62,-348.45"/>
</g>
<!-- src_core_app&#45;&gt;src_shorts_maker -->
<g id="edge35" class="edge">
<title>src_core_app&#45;&gt;src_shorts_maker</title><style>.edge>path:hover{stroke-width:8}</style>
<path fill="none" stroke="black" d="M308.89,-467.26C288.57,-455.54 264.59,-436.29 264,-410.49"/>
</g>
<!-- src_core_audio_analyzer&#45;&gt;src_shorts_maker -->
<g id="edge36" class="edge">
<title>src_core_audio_analyzer&#45;&gt;src_shorts_maker</title><style>.edge>path:hover{stroke-width:8}</style>
<path fill="none" stroke="black" d="M87.76,-535.5C94.58,-513.03 107.28,-482.23 129,-463.49 177.79,-421.37 265.49,-474.93 264,-410.49"/>
<path fill="none" stroke="black" d="M264,-408.49C263.56,-394.55 262.4,-379.15 261.21,-366.09"/>
<polygon fill="#613091" stroke="black" points="264.66,-365.38 260.23,-355.76 257.69,-366.04 264.66,-365.38"/>
</g>
<!-- src_core_audio_mixer -->
<g id="node20" class="node">
<title>src_core_audio_mixer</title><style>.edge>path:hover{stroke-width:8}</style>
<ellipse fill="#6b35a1" stroke="black" cx="646" cy="-564.48" rx="54.39" ry="28.98"/>
<text text-anchor="middle" x="646" y="-572.98" font-family="Helvetica,sans-Serif" font-size="10.00" fill="#ffffff">src.</text>
<text text-anchor="middle" x="646" y="-561.98" font-family="Helvetica,sans-Serif" font-size="10.00" fill="#ffffff">core.</text>
<text text-anchor="middle" x="646" y="-550.98" font-family="Helvetica,sans-Serif" font-size="10.00" fill="#ffffff">audio_mixer</text>
</g>
<!-- src_core_audio_mixer&#45;&gt;src_shorts_maker -->
<g id="edge37" class="edge">
<title>src_core_audio_mixer&#45;&gt;src_shorts_maker</title><style>.edge>path:hover{stroke-width:8}</style>
<path fill="none" stroke="black" d="M602.93,-546.52C503.04,-507.16 264.07,-412.75 264,-410.49"/>
</g>
<!-- src_core_interfaces -->
<g id="node21" class="node">
<title>src_core_interfaces</title><style>.edge>path:hover{stroke-width:8}</style>
<ellipse fill="#852fdb" stroke="black" cx="566" cy="-658.46" rx="45.92" ry="28.98"/>
<text text-anchor="middle" x="566" y="-666.96" font-family="Helvetica,sans-Serif" font-size="10.00" fill="#ffffff">src.</text>
<text text-anchor="middle" x="566" y="-655.96" font-family="Helvetica,sans-Serif" font-size="10.00" fill="#ffffff">core.</text>
<text text-anchor="middle" x="566" y="-644.96" font-family="Helvetica,sans-Serif" font-size="10.00" fill="#ffffff">interfaces</text>
</g>
<!-- src_core_interfaces&#45;&gt;src_core_app -->
<g id="edge38" class="edge">
<title>src_core_interfaces&#45;&gt;src_core_app</title><style>.edge>path:hover{stroke-width:8}</style>
<path fill="none" stroke="black" d="M569.26,-629.46C570.81,-601.96 568.48,-560.59 545,-535.49 498.45,-485.74 461.85,-516.92 396,-499.49 391.35,-498.26 386.5,-496.93 381.68,-495.58"/>
<polygon fill="#852fdb" stroke="black" points="382.44,-492.16 371.87,-492.81 380.54,-498.9 382.44,-492.16"/>
</g>
<!-- src_core_interfaces&#45;&gt;src_core_audio_mixer -->
<g id="edge39" class="edge">
<title>src_core_interfaces&#45;&gt;src_core_audio_mixer</title><style>.edge>path:hover{stroke-width:8}</style>
<path fill="none" stroke="black" d="M587.43,-632.81C596.53,-622.35 607.28,-609.99 617.07,-598.74"/>
<polygon fill="#852fdb" stroke="black" points="619.74,-601 623.66,-591.16 614.46,-596.41 619.74,-601"/>
</g>
<!-- src_core_montage -->
<g id="node23" class="node">
<title>src_core_montage</title><style>.edge>path:hover{stroke-width:8}</style>
<ellipse fill="#6b35a1" stroke="black" cx="494" cy="-564.48" rx="42.35" ry="28.98"/>
<text text-anchor="middle" x="494" y="-572.98" font-family="Helvetica,sans-Serif" font-size="10.00" fill="#ffffff">src.</text>
<text text-anchor="middle" x="494" y="-561.98" font-family="Helvetica,sans-Serif" font-size="10.00" fill="#ffffff">core.</text>
<text text-anchor="middle" x="494" y="-550.98" font-family="Helvetica,sans-Serif" font-size="10.00" fill="#ffffff">montage</text>
</g>
<!-- src_core_interfaces&#45;&gt;src_core_montage -->
<g id="edge40" class="edge">
<title>src_core_interfaces&#45;&gt;src_core_montage</title><style>.edge>path:hover{stroke-width:8}</style>
<path fill="none" stroke="black" d="M545.94,-631.84C537.85,-621.5 528.41,-609.45 519.82,-598.47"/>
<polygon fill="#852fdb" stroke="black" points="522.37,-596.05 513.45,-590.33 516.85,-600.36 522.37,-596.05"/>
</g>
<!-- src_core_models&#45;&gt;src_core_app -->
<g id="edge41" class="edge">
<title>src_core_models&#45;&gt;src_core_app</title><style>.edge>path:hover{stroke-width:8}</style>
<path fill="none" stroke="black" d="M240,-563.48C237.75,-532.55 267.55,-511.09 294.7,-498.06"/>
<polygon fill="#7f06f9" stroke="black" points="296.46,-501.11 304.13,-493.81 293.58,-494.73 296.46,-501.11"/>
</g>
<!-- src_core_models&#45;&gt;src_core_audio_analyzer -->
<g id="edge42" class="edge">
<title>src_core_models&#45;&gt;src_core_audio_analyzer</title><style>.edge>path:hover{stroke-width:8}</style>
<path fill="none" stroke="black" d="M298.4,-645.15C257.83,-630.28 188.88,-605.01 139.5,-586.92"/>
<polygon fill="#7f06f9" stroke="black" points="140.49,-583.56 129.9,-583.4 138.09,-590.13 140.49,-583.56"/>
</g>
<!-- src_core_models&#45;&gt;src_core_audio_mixer -->
<g id="edge43" class="edge">
<title>src_core_models&#45;&gt;src_core_audio_mixer</title><style>.edge>path:hover{stroke-width:8}</style>
<path fill="none" stroke="black" d="M366.8,-647.27C420.64,-631.49 524.66,-601.02 589.41,-582.05"/>
<polygon fill="#7f06f9" stroke="black" points="590.45,-585.4 599.06,-579.23 588.48,-578.68 590.45,-585.4"/>
</g>
<!-- src_core_models&#45;&gt;src_core_montage -->
<g id="edge44" class="edge">
<title>src_core_models&#45;&gt;src_core_montage</title><style>.edge>path:hover{stroke-width:8}</style>
<path fill="none" stroke="black" d="M361.71,-640.59C387.34,-626.04 424.62,-604.87 453.07,-588.71"/>
<polygon fill="#7f06f9" stroke="black" points="455.01,-591.64 461.97,-583.66 451.55,-585.55 455.01,-591.64"/>
</g>
<!-- src_core_models&#45;&gt;src_core_video_analyzer -->
<g id="edge45" class="edge">
<title>src_core_models&#45;&gt;src_core_video_analyzer</title><style>.edge>path:hover{stroke-width:8}</style>
<path fill="none" stroke="black" d="M332,-629.36C332,-621.33 332,-612.42 332,-603.88"/>
<polygon fill="#7f06f9" stroke="black" points="335.5,-603.72 332,-593.72 328.5,-603.72 335.5,-603.72"/>
</g>
<!-- src_core_models&#45;&gt;src_services_reporting_generator -->
<g id="edge46" class="edge">
<title>src_core_models&#45;&gt;src_services_reporting_generator</title><style>.edge>path:hover{stroke-width:8}</style>
<path fill="none" stroke="black" d="M301.02,-641.81C275.29,-626.41 242.51,-600.17 240,-565.48"/>
<path fill="none" stroke="black" d="M240,-563.48C237.28,-526.03 270.92,-519.39 264,-482.49"/>
<path fill="none" stroke="black" d="M264,-480.49C255.37,-434.49 197.6,-467.3 173,-427.49 157.18,-401.9 180.8,-322.31 190,-313.06 293.37,-209.08 414.36,-350.68 512,-241.29"/>
<path fill="none" stroke="black" d="M512,-239.29C523.71,-225.62 520.77,-218.33 531,-203.52 539.41,-191.34 549.62,-178.92 559.35,-167.91"/>
<polygon fill="#7f06f9" stroke="black" points="562.23,-169.94 566.32,-160.17 557.03,-165.26 562.23,-169.94"/>
</g>
<!-- src_core_models&#45;&gt;src_shorts_maker -->
<g id="edge47" class="edge">
<title>src_core_models&#45;&gt;src_shorts_maker</title><style>.edge>path:hover{stroke-width:8}</style>
<path fill="none" stroke="black" d="M264,-480.49C258.26,-449.91 266.18,-441.52 264,-410.49"/>
</g>
<!-- src_core_montage&#45;&gt;src_core_app -->
<g id="edge48" class="edge">
<title>src_core_montage&#45;&gt;src_core_app</title><style>.edge>path:hover{stroke-width:8}</style>
<path fill="none" stroke="black" d="M460.7,-546.3C434.77,-532.93 398.87,-514.4 372.41,-500.76"/>
<polygon fill="#6b35a1" stroke="black" points="373.98,-497.63 363.48,-496.15 370.77,-503.85 373.98,-497.63"/>
</g>
<!-- src_core_validation -->
<g id="node24" class="node">
<title>src_core_validation</title><style>.edge>path:hover{stroke-width:8}</style>
<ellipse fill="#853bce" stroke="black" cx="193" cy="-658.46" rx="45.92" ry="28.98"/>
<text text-anchor="middle" x="193" y="-666.96" font-family="Helvetica,sans-Serif" font-size="10.00" fill="#ffffff">src.</text>
<text text-anchor="middle" x="193" y="-655.96" font-family="Helvetica,sans-Serif" font-size="10.00" fill="#ffffff">core.</text>
<text text-anchor="middle" x="193" y="-644.96" font-family="Helvetica,sans-Serif" font-size="10.00" fill="#ffffff">validation</text>
</g>
<!-- src_core_validation&#45;&gt;src_core_audio_analyzer -->
<g id="edge49" class="edge">
<title>src_core_validation&#45;&gt;src_core_audio_analyzer</title><style>.edge>path:hover{stroke-width:8}</style>
<path fill="none" stroke="black" d="M165.6,-634.96C151.59,-623.46 134.32,-609.27 119.04,-596.72"/>
<polygon fill="#853bce" stroke="black" points="121.21,-593.98 111.26,-590.34 116.77,-599.39 121.21,-593.98"/>
</g>
<!-- src_core_validation&#45;&gt;src_core_video_analyzer -->
<g id="edge50" class="edge">
<title>src_core_validation&#45;&gt;src_core_video_analyzer</title><style>.edge>path:hover{stroke-width:8}</style>
<path fill="none" stroke="black" d="M224.19,-636.82C243.04,-624.34 267.37,-608.25 288.14,-594.5"/>
<polygon fill="#853bce" stroke="black" points="290.09,-597.41 296.5,-588.97 286.22,-591.57 290.09,-597.41"/>
</g>
<!-- src_core_video_analyzer&#45;&gt;src_core_app -->
<g id="edge51" class="edge">
<title>src_core_video_analyzer&#45;&gt;src_core_app</title><style>.edge>path:hover{stroke-width:8}</style>
<path fill="none" stroke="black" d="M333.74,-535.15C334.25,-526.91 334.81,-517.92 335.31,-509.74"/>
<polygon fill="#613091" stroke="black" points="338.82,-509.78 335.94,-499.58 331.83,-509.35 338.82,-509.78"/>
</g>
<!-- src_services_reporting -->
<g id="node26" class="node">
<title>src_services_reporting</title><style>.edge>path:hover{stroke-width:8}</style>
<ellipse fill="#7f4cb3" stroke="black" cx="594" cy="-28.99" rx="43.27" ry="28.98"/>
<text text-anchor="middle" x="594" y="-37.49" font-family="Helvetica,sans-Serif" font-size="10.00" fill="#ffffff">src.</text>
<text text-anchor="middle" x="594" y="-26.49" font-family="Helvetica,sans-Serif" font-size="10.00" fill="#ffffff">services.</text>
<text text-anchor="middle" x="594" y="-15.49" font-family="Helvetica,sans-Serif" font-size="10.00" fill="#ffffff">reporting</text>
</g>
<!-- src_services_reporting_components&#45;&gt;src_services_reporting_generator -->
<g id="edge52" class="edge">
<title>src_services_reporting_components&#45;&gt;src_services_reporting_generator</title><style>.edge>path:hover{stroke-width:8}</style>
<path fill="none" stroke="black" d="M594,-203.48C594,-195.32 594,-186.53 594,-177.99"/>
<polygon fill="#613091" stroke="black" points="597.5,-177.77 594,-167.77 590.5,-177.77 597.5,-177.77"/>
</g>
<!-- src_services_reporting_formatting&#45;&gt;src_services_reporting_generator -->
<g id="edge53" class="edge">
<title>src_services_reporting_formatting&#45;&gt;src_services_reporting_generator</title><style>.edge>path:hover{stroke-width:8}</style>
<path fill="none" stroke="black" d="M684.15,-211.88C668.12,-197.63 648.4,-180.1 631.49,-165.08"/>
<polygon fill="#613091" stroke="black" points="633.75,-162.4 623.95,-158.37 629.1,-167.63 633.75,-162.4"/>
</g>
<!-- src_services_reporting_generator&#45;&gt;src_services_reporting -->
<g id="edge54" class="edge">
<title>src_services_reporting_generator&#45;&gt;src_services_reporting</title><style>.edge>path:hover{stroke-width:8}</style>
<path fill="none" stroke="black" d="M594,-93.74C594,-85.5 594,-76.71 594,-68.37"/>
<polygon fill="#663399" stroke="black" points="597.5,-68.13 594,-58.13 590.5,-68.13 597.5,-68.13"/>
</g>
<!-- src_ui -->
<g id="node31" class="node">
<title>src_ui</title><style>.edge>path:hover{stroke-width:8}</style>
<ellipse fill="#8547c2" stroke="black" cx="209" cy="-409.49" rx="27" ry="18"/>
<text text-anchor="middle" x="209" y="-406.99" font-family="Helvetica,sans-Serif" font-size="10.00" fill="#ffffff">src.ui</text>
</g>
<!-- src_ui&#45;&gt;src_shorts_maker -->
<g id="edge55" class="edge">
<title>src_ui&#45;&gt;src_shorts_maker</title><style>.edge>path:hover{stroke-width:8}</style>
<path fill="none" stroke="black" d="M219.63,-392.6C225.33,-384.08 232.53,-373.32 239.15,-363.44"/>
<polygon fill="#8547c2" stroke="black" points="242.11,-365.31 244.76,-355.05 236.29,-361.41 242.11,-365.31"/>
</g>
<!-- src_ui_console&#45;&gt;src_shorts_maker -->
<g id="edge56" class="edge">
<title>src_ui_console&#45;&gt;src_shorts_maker</title><style>.edge>path:hover{stroke-width:8}</style>
<path fill="none" stroke="black" d="M217.77,-467.43C239.47,-455.92 264.61,-436.86 264,-410.49"/>
</g>
<!-- yaml -->
<g id="node33" class="node">
<title>yaml</title><style>.edge>path:hover{stroke-width:8}</style>
<ellipse fill="#c247a3" stroke="black" cx="640" cy="-830.87" rx="27" ry="18"/>
<text text-anchor="middle" x="640" y="-828.37" font-family="Helvetica,sans-Serif" font-size="10.00" fill="#ffffff">yaml</text>
</g>
<!-- yaml&#45;&gt;src_core_audio_mixer -->
<g id="edge57" class="edge">
<title>yaml&#45;&gt;src_core_audio_mixer</title><style>.edge>path:hover{stroke-width:8}</style>
<path fill="none" stroke="black" d="M640,-743.67C622.95,-697.63 629.32,-640.25 636.65,-603.25"/>
<polygon fill="#c247a3" stroke="black" points="640.09,-603.88 638.72,-593.38 633.24,-602.45 640.09,-603.88"/>
</g>
<!-- yaml&#45;&gt;src_core_montage -->
<g id="edge58" class="edge">
<title>yaml&#45;&gt;src_core_montage</title><style>.edge>path:hover{stroke-width:8}</style>
<path fill="none" stroke="black" d="M643.52,-812.75C646.33,-795.25 648.53,-767.6 640,-745.67"/>
<path fill="none" stroke="black" d="M640,-743.67C617.33,-685.38 548.8,-737.27 511,-687.45 493.05,-663.8 489.57,-629.92 490.14,-603.86"/>
<polygon fill="#c247a3" stroke="black" points="493.65,-603.73 490.58,-593.59 486.66,-603.43 493.65,-603.73"/>
</g>
</g>
</svg>
