<svg xmlns="http://www.w3.org/2000/svg" viewBox="0 0 1200 160">
  <defs>
    <linearGradient id="bg" x1="0" y1="0" x2="1" y2="0" gradientUnits="objectBoundingBox">
      <stop offset="0%" stop-color="#1a0533"/>
      <stop offset="55%" stop-color="#2d1b69"/>
      <stop offset="100%" stop-color="#1a0533"/>
    </linearGradient>
    <linearGradient id="gld" x1="0" y1="0" x2="1" y2="0" gradientUnits="objectBoundingBox">
      <stop offset="0%" stop-color="#f8b500"/>
      <stop offset="100%" stop-color="#ff6b35"/>
    </linearGradient>
    <linearGradient id="wv" x1="0" y1="0" x2="0" y2="1" gradientUnits="objectBoundingBox">
      <stop offset="0%" stop-color="#f8b500" stop-opacity="0.9"/>
      <stop offset="100%" stop-color="#ff6b35" stop-opacity="0.3"/>
    </linearGradient>
    <linearGradient id="fade" x1="0" y1="0" x2="1" y2="0" gradientUnits="objectBoundingBox">
      <stop offset="0%" stop-color="#251558" stop-opacity="1"/>
      <stop offset="100%" stop-color="#251558" stop-opacity="0"/>
    </linearGradient>
  </defs>

  <!-- Background -->
  <rect width="1200" height="160" fill="url(#bg)"/>

  <!-- Waveform bars (centred at y=80) -->
  <rect x="640" y="65" width="7" height="30"  fill="url(#wv)" rx="3" opacity="0.60"/>
  <rect x="650" y="52" width="7" height="55"  fill="url(#wv)" rx="3" opacity="0.78"/>
  <rect x="660" y="70" width="7" height="20"  fill="url(#wv)" rx="3" opacity="0.48"/>
  <rect x="670" y="35" width="7" height="90"  fill="url(#wv)" rx="3" opacity="0.92"/>
  <rect x="680" y="72" width="7" height="15"  fill="url(#wv)" rx="3" opacity="0.38"/>
  <rect x="690" y="57" width="7" height="45"  fill="url(#wv)" rx="3" opacity="0.70"/>
  <rect x="700" y="67" width="7" height="25"  fill="url(#wv)" rx="3" opacity="0.54"/>
  <rect x="710" y="22" width="7" height="115" fill="url(#wv)" rx="3" opacity="1.00"/>
  <rect x="720" y="70" width="7" height="20"  fill="url(#wv)" rx="3" opacity="0.48"/>
  <rect x="730" y="60" width="7" height="40"  fill="url(#wv)" rx="3" opacity="0.65"/>
  <rect x="740" y="65" width="7" height="30"  fill="url(#wv)" rx="3" opacity="0.60"/>
  <rect x="750" y="40" width="7" height="80"  fill="url(#wv)" rx="3" opacity="0.86"/>
  <rect x="760" y="72" width="7" height="15"  fill="url(#wv)" rx="3" opacity="0.38"/>
  <rect x="770" y="55" width="7" height="50"  fill="url(#wv)" rx="3" opacity="0.74"/>
  <rect x="780" y="70" width="7" height="20"  fill="url(#wv)" rx="3" opacity="0.48"/>
  <rect x="790" y="15" width="7" height="130" fill="url(#wv)" rx="3" opacity="1.00"/>
  <rect x="800" y="67" width="7" height="25"  fill="url(#wv)" rx="3" opacity="0.54"/>
  <rect x="810" y="50" width="7" height="60"  fill="url(#wv)" rx="3" opacity="0.80"/>
  <rect x="820" y="72" width="7" height="15"  fill="url(#wv)" rx="3" opacity="0.38"/>
  <rect x="830" y="32" width="7" height="95"  fill="url(#wv)" rx="3" opacity="0.93"/>
  <rect x="840" y="70" width="7" height="20"  fill="url(#wv)" rx="3" opacity="0.48"/>
  <rect x="850" y="57" width="7" height="45"  fill="url(#wv)" rx="3" opacity="0.70"/>
  <rect x="860" y="65" width="7" height="30"  fill="url(#wv)" rx="3" opacity="0.60"/>
  <rect x="870" y="25" width="7" height="110" fill="url(#wv)" rx="3" opacity="1.00"/>
  <rect x="880" y="72" width="7" height="15"  fill="url(#wv)" rx="3" opacity="0.38"/>
  <rect x="890" y="52" width="7" height="55"  fill="url(#wv)" rx="3" opacity="0.78"/>
  <rect x="900" y="67" width="7" height="25"  fill="url(#wv)" rx="3" opacity="0.54"/>
  <rect x="910" y="37" width="7" height="85"  fill="url(#wv)" rx="3" opacity="0.88"/>
  <rect x="920" y="70" width="7" height="20"  fill="url(#wv)" rx="3" opacity="0.48"/>
  <rect x="930" y="55" width="7" height="50"  fill="url(#wv)" rx="3" opacity="0.74"/>
  <rect x="940" y="72" width="7" height="15"  fill="url(#wv)" rx="3" opacity="0.38"/>
  <rect x="950" y="17" width="7" height="125" fill="url(#wv)" rx="3" opacity="1.00"/>
  <rect x="960" y="65" width="7" height="30"  fill="url(#wv)" rx="3" opacity="0.60"/>
  <rect x="970" y="52" width="7" height="55"  fill="url(#wv)" rx="3" opacity="0.78"/>
  <rect x="980" y="70" width="7" height="20"  fill="url(#wv)" rx="3" opacity="0.48"/>
  <rect x="990" y="35" width="7" height="90"  fill="url(#wv)" rx="3" opacity="0.92"/>
  <rect x="1000" y="72" width="7" height="15" fill="url(#wv)" rx="3" opacity="0.38"/>
  <rect x="1010" y="57" width="7" height="45" fill="url(#wv)" rx="3" opacity="0.70"/>
  <rect x="1020" y="67" width="7" height="25" fill="url(#wv)" rx="3" opacity="0.54"/>
  <rect x="1030" y="22" width="7" height="115" fill="url(#wv)" rx="3" opacity="1.00"/>
  <rect x="1040" y="70" width="7" height="20" fill="url(#wv)" rx="3" opacity="0.48"/>
  <rect x="1050" y="60" width="7" height="40" fill="url(#wv)" rx="3" opacity="0.65"/>
  <rect x="1060" y="65" width="7" height="30" fill="url(#wv)" rx="3" opacity="0.60"/>
  <rect x="1070" y="40" width="7" height="80" fill="url(#wv)" rx="3" opacity="0.86"/>
  <rect x="1080" y="72" width="7" height="15" fill="url(#wv)" rx="3" opacity="0.38"/>
  <rect x="1090" y="55" width="7" height="50" fill="url(#wv)" rx="3" opacity="0.74"/>
  <rect x="1100" y="70" width="7" height="20" fill="url(#wv)" rx="3" opacity="0.48"/>
  <rect x="1110" y="15" width="7" height="130" fill="url(#wv)" rx="3" opacity="1.00"/>
  <rect x="1120" y="67" width="7" height="25" fill="url(#wv)" rx="3" opacity="0.54"/>
  <rect x="1130" y="57" width="7" height="45" fill="url(#wv)" rx="3" opacity="0.70"/>
  <rect x="1140" y="72" width="7" height="15" fill="url(#wv)" rx="3" opacity="0.38"/>
  <rect x="1150" y="45" width="7" height="70" fill="url(#wv)" rx="3" opacity="0.82"/>
  <rect x="1160" y="70" width="7" height="20" fill="url(#wv)" rx="3" opacity="0.48"/>
  <rect x="1170" y="62" width="7" height="35" fill="url(#wv)" rx="3" opacity="0.62"/>
  <rect x="1180" y="67" width="7" height="25" fill="url(#wv)" rx="3" opacity="0.54"/>
  <rect x="1190" y="35" width="7" height="90" fill="url(#wv)" rx="3" opacity="0.90"/>

  <!-- Fade waveform into background on left -->
  <rect x="610" y="0" width="120" height="160" fill="url(#fade)"/>

  <!-- Title -->
  <text x="60" y="62" font-family="'Helvetica Neue', Arial, sans-serif" font-size="36" fill="white" font-weight="700" letter-spacing="-0.5">Bachata Beat-Story Sync</text>
  <!-- Gold rule -->
  <rect x="60" y="76" width="295" height="2" fill="url(#gld)" rx="1"/>
  <!-- Tagline -->
  <text x="60" y="104" font-family="'Helvetica Neue', Arial, sans-serif" font-size="13" fill="#c9a96e" letter-spacing="3.5" font-weight="500">BEAT-SYNCED IN SECONDS</text>
  <!-- Genre list -->
  <text x="60" y="132" font-family="'Helvetica Neue', Arial, sans-serif" font-size="12" fill="#8b7fa8" letter-spacing="1">Bachata · Salsa · Reggaeton · Kizomba · Merengue · Pop</text>
</svg>
